<?xml version="1.0" encoding="utf-8"?>
<!-- Generator: Adobe Illustrator 25.2.0, SVG Export Plug-In . SVG Version: 6.00 Build 0)  -->
<svg version="1.1" id="Capa_1" xmlns="http://www.w3.org/2000/svg" xmlns:xlink="http://www.w3.org/1999/xlink" x="0px" y="0px"
	 viewBox="0 0 800 277.317688" style="enable-background:new 0 0 800 277.317688;" xml:space="preserve">
<style type="text/css">
	.st0{fill:#021D49;}
</style>
<g>
	<g>
		<g>
			<g>
				<path class="st0" d="M63.1355896,151.0763397c0,19.416687-12.5339241,32.4624939-31.2184944,32.4624939
					C14.3364344,183.5388336,0,168.4582367,0,149.8547974c0-18.4988556,14.3364344-33.5553284,31.9170952-33.5553284
					c14.0219765,0,25.381958,8.2782898,29.8467712,21.4632111h-3.6277657
					c-4.3719597-11.1501236-14.1386337-18.0687637-26.2190056-18.0687637c-15.7316017,0-28.4750423,13.6160202-28.4750423,30.160881
					c0,16.754364,12.7434406,30.2312622,28.4750423,30.2312622c16.0912971,0,26.9514618-10.8715668,27.7070503-27.3476868
					H32.5566978v-3.4299927h30.5788918V151.0763397z"/>
				<path class="st0" d="M77.5883255,182.4339447h-3.429985v-44.4617462c0-12.0227127,9.7667007-21.6727295,21.6847992-21.6727295
					c11.9764786,0,21.7431259,9.6500168,21.7431259,21.6727295v44.4617462h-3.4420547v-25.8700256H77.5883255V182.4339447z
					 M114.1442108,137.9721985c0-10.0583191-8.1854324-18.2782822-18.3010712-18.2782822
					c-10.057312,0-18.2548141,8.2199631-18.2548141,18.2782822v15.1496582h36.5558853V137.9721985z"/>
				<path class="st0" d="M173.0590363,182.4339447h-3.453125v-17.6842651c0-5.1044159-4.1862335-9.3952484-9.2903137-9.3952484
					h-24.4637909v27.0795135h-3.452774v-44.8462372c0-12.3706818,8.8488617-21.2882385,21.0334625-21.2882385
					c11.6040192,0,21.0110016,8.7201157,21.0110016,19.509552c0,8.2903595-3.5228424,14.2314758-9.9654541,17.1509247
					c5.1278687,1.5453644,8.5809937,6.1972351,8.5809937,11.7897339V182.4339447z M154.0838318,151.9945068
					c10.603714,0,16.9058838-6.034317,16.9058838-16.1854858c0-8.8250427-7.8951416-16.1151047-17.5572205-16.1151047
					c-10.3368835,0-17.5806885,7.394989-17.5806885,17.8937912v14.4067993H154.0838318z"/>
				<polygon class="st0" points="225.9871368,182.4339447 181.814682,182.4339447 181.814682,178.8883209 220.7781219,121.2989578 
					182.9423676,121.2989578 182.9423676,117.8803711 224.963028,117.8803711 224.963028,121.2285614 185.9187927,178.9811707 
					225.9871368,178.9811707 				"/>
				<path class="st0" d="M238.1945496,182.4339447h-3.4064941v-44.4617462c0-12.0227127,9.7666473-21.6727295,21.6505737-21.6727295
					c11.9989624,0,21.7539062,9.6500168,21.7539062,21.6727295v44.4617462h-3.4411011v-25.8700256h-36.5568848V182.4339447z
					 M274.7514343,137.9721985c0-10.0583191-8.1629639-18.2782822-18.3128052-18.2782822
					c-10.0465698,0-18.2440796,8.2199631-18.2440796,18.2782822v15.1496582h36.5568848V137.9721985z"/>
				<path class="st0" d="M343.2006226,182.4339447h-24.2542725V135.169754c0-10.5919952,8.4522705-18.870285,19.3476562-18.870285
					c10.9992676,0,19.243042,7.324585,19.243042,17.1033325c0,7.23172-3.8134766,11.9871826-8.8367615,14.5100555
					c7.3487244,2.1276398,12.3599243,8.558197,12.3599243,16.8368225
					C361.0602112,174.7841949,353.4436646,182.4339447,343.2006226,182.4339447 M322.3874207,146.8900909h17.3949585
					c6.8710327,0,14.2077026-4.2908325,14.2077026-13.4872894c0-7.8247452-6.6853333-13.7088852-15.6960754-13.7088852
					c-8.9413757,0-15.9065857,6.8365097-15.9065857,15.4758377V146.8900909z M343.2006226,150.2154846h-20.8132019v28.765686
					h20.8132019c8.3953247,0,14.4293213-5.9532013,14.4293213-14.2314911
					C357.6299438,156.5639191,351.501709,150.3083496,343.2006226,150.2154846"/>
				<path class="st0" d="M375.8967896,164.0983429c0,8.824707,5.9411316,14.8828278,14.8469543,14.8828278h17.8595886v3.452774
					h-17.8595886c-10.8822937,0-18.3014221-7.5689545-18.3014221-18.3356018v-46.2179718h3.4544678V164.0983429z"/>
				<path class="st0" d="M420.9163818,182.4339447h-3.4407654v-44.4617462c0-12.0227127,9.7784119-21.6727295,21.6730652-21.6727295
					c12.0109863,0,21.7776794,9.6500168,21.7776794,21.6727295v44.4617462h-3.4541016v-25.8700256h-36.5558777V182.4339447z
					 M457.4722595,137.9721985c0-10.0583191-8.208252-18.2782822-18.3235779-18.2782822
					c-10.0465698,0-18.2322998,8.2199631-18.2322998,18.2782822v15.1496582h36.5558777V137.9721985z"/>
				<path class="st0" d="M519.6206055,137.9721985v44.4617462h-3.4537964v-44.4617462
					c0-10.0583191-8.266571-18.2782822-18.323822-18.2782822c-10.0228271,0-18.2203369,8.2199631-18.2203369,18.2782822v44.4617462
					h-3.4299927v-44.4617462c0-12.0227127,9.6617737-21.6727295,21.6503296-21.6727295
					C509.876709,116.299469,519.6206055,125.9494858,519.6206055,137.9721985"/>
				<path class="st0" d="M562.791748,183.5388336c-17.6500854,0-31.8936157-15.0805969-31.8936157-33.6840363
					c0-18.4988556,14.2435303-33.5553284,31.8936157-33.5553284c13.8600464,0,25.4174805,8.8129654,29.8823242,21.4632111
					h-3.7210083c-4.2897949-10.6737747-14.2314453-18.0687637-26.1613159-18.0687637
					c-15.696106,0-28.4395142,13.6160202-28.4395142,30.160881c0,16.754364,12.7434082,30.2312622,28.4395142,30.2312622
					c11.6619873,0,21.59198-7.4533081,26.0684814-18.1391602h3.6971436
					C587.8947754,174.6209412,576.2910767,183.5388336,562.791748,183.5388336"/>
				<path class="st0" d="M607.5568848,182.4339447h-3.4303589v-44.4617462c0-12.0227127,9.7559814-21.6727295,21.6730957-21.6727295
					c11.9992676,0,21.755188,9.6500168,21.755188,21.6727295v44.4617462h-3.4302979v-25.8700256h-36.567627V182.4339447z
					 M644.1245117,137.9721985c0-10.0583191-8.1975098-18.2782822-18.3248901-18.2782822
					c-10.057312,0-18.2427368,8.2199631-18.2427368,18.2782822v15.1496582h36.567627V137.9721985z"/>
			</g>
		</g>
		<path class="st0" d="M761.1763916,170.8419952c21.5098267-4.8483124,36.2652588-25.6960602,31.5668335-34.1483307
			c-4.1383057-5.9769897-22.6954956-5.244873-22.6026611-10.7669754c0.163269-5.1862106,6.2317505-8.7211151,6.6970825-9.3023911
			c0.2098389-0.1166611,0.2443237-0.0928574,0.3372192-0.173645c2.9643555,0.0569839,3.3599243-2.4300232,6.2780151-3.9304733
			c2.3730469-1.2094727,12.4645386-4.6622543,16.2783203-5.941124c0.6047363-0.2333145,0-0.2095184,0-0.2095184
			c-3.4993286,0.6275406-11.9992065,2.2205124-14.4054565,2.6040039c-3.0002441,0.4880829-4.2207031-1.6157684-7.6390381-1.4763184
			c-1.1752319,0.0238037-2.2097778,0.5464096-2.9656982,1.3713913c-0.6741333,0.7217331-1.0921021,1.7562256-1.0921021,2.8956451
			c0,0.6047363,0,1.209816-0.62854,2.1276474c-0.5001831,0.7321243-8.7200928,6.5807343-8.3832397,13.7209473
			c0.3261719,7.7426147,16.3829346,7.1388702,21.5577393,11.2654419
			c6.0802612,4.8375854-7.4415894,19.5346985-20.8598022,25.1855164c-1.4421387,0.6047516-1.2564087,0.1857147-0.9761963-0.639267
			c0.7663574-2.1742401,2.4763184-6.8606262,2.1964111-11.5694885
			c-1.1860352-20.8943481-21.1729126-32.0220184-28.602417-49.7884216
			c-11.1384277-26.6142273-1.4538574-89.9827957,8.302063-99.6448822c1.6502686-1.6274998,1.4528809-3.5456364-1.5929565-1.6050398
			c-10.4880371,6.6511269-19.1619263,23.3830318-22.6384888,29.9754963
			c-0.8605347,1.6167736-1.2906494-0.2095146-1.3834839-1.859808c-0.2561035-3.7789516,0.7096558-8.336956,2.9063721-12.8135033
			c1.151123-2.3837585,1.163208-3.7209568-1.7897339-0.7679911c-0.3607178,0.3727655-5.1624146,6.2448378-8.4308472,12.8838968
			c-3.2894897,6.7436485-4.9753418,14.2539482-6.0684814,17.056736c-2.5228882,6.4650764-3.8839111-7.9175949-1.3251343-13.4065094
			c1.3251343-2.778986,0.173645-2.8718414-2.2681274,0.0703964c-8.8250122,10.8477631-10.9989624,26.8579369-11.9647217,29.5906601
			c-2.1383667,6.0353279-4.4993286-3.9411964-0.3713989-17.219986c0.7559204-2.4648819,0.336853-3.999527-2.2443237-0.3717613
			c-1.6513062,2.279171-12.4411011,16.3249474-12.6968384,46.4274902
			c-0.2561035,31.0099869,10.4880371,50.7766495,23.7078247,63.1473312
			c0.0821533,0.0583191,0.5236816,0.3831482-0.0227051,0.8953705
			c-11.5812988,10.2440338-16.1855469,27.0570526-18.1392212,35.835495
			c-0.9178467,4.1503754,0.3023682,4.6267242,3.4420166,1.510849c5.6625977-5.6625671,17.545166-15.2901154,28.3359375-15.2901154
			c8.0687866,0,12.3358154,3.3612671,20.7773438,4.6159973c0.2202759,0.0238037,0.4539185,0.2919769,0.3372803,0.4072876
			c-0.1170044,0.1394501-0.2678833,0.2561188-0.4180298,0.3727722c-0.7334595,0.6154633-1.6512451,1.2440033-2.4538574,1.3013306
			c-1.6516113,0.1045837-15.3021851,1.9191437-17.7080688,1.9191437c-2.4075317,0-4.267334,1.6978912-5.7902222,4.1041107
			c-1.5346069,2.4300232-13.8480225,20.8360138-16.1043701,22.6613007
			c-0.8250122,0.6513367-1.7907715,1.3489227-2.6502686,2.9656982c-0.4193115,0.778717-0.6858521,3.4182587-0.9775391,4.3709564
			c-0.8491211,2.8252411-0.1856689,5.4530487,1.8370361,1.6633606c0.1870728-0.2906342,1.0120239-2.5228729,1.2443237-3.1862793
			c0.2095337-0.6737823,0.7680054-1.325119,2.7324219-2.3133545c1.9656982-0.9882355,1.1273193-2.2905731,1.1273193-2.2905731
			l-0.1273804-2.6398621c0,0,9.9644775-11.8598022,14.1506958-17.9759064
			c0.7203979-1.0348358,1.7203369-2.848053,4.6971436-3.4755859c5.953186-1.163208,17.7200928-2.7099304,21.1849976-3.1051483
			c14.7312622-1.7324219,24.6849976-14.4172058,24.8006592-14.4993286
			C760.4429321,171.2838135,760.8153687,170.9123993,761.1763916,170.8419952z M692.3424072,178.7833862
			c-2.7786865,1.9419403-3.3478394,2.1621857-2.2905884-0.6975861c1.9074097-4.9994965,6.7557373-13.9529266,13.7779541-20.7776947
			c0.3261719-0.2095184,0.4310913-0.2906342,0.6975708-0.1045837c7.3380127,5.8600006,20.4645996,11.2905884,25.9176636,12.4179382
			c11.9301758,2.3837585,18.2202759,2.3136902,21.2074585,2.0575867c0.3844604-0.0227966,0.3606567,0.1283875,0.2681885,0.3261719
			c-1.9647827,3.5814972-5.9294434,5.9173279-13.173584,5.0923462c-10.6154175-1.256073-13.5231323-3.9884644-21.4869995-4.9304352
			C708.562439,171.1564331,697.3660278,175.3651428,692.3424072,178.7833862z M753.9326172,165.7151184
			c0.1619263,0.5346832,0.2440796,0.894043-0.5584717,1.1038818c-2.1397095,0.581955-15.9414673,0.3141022-26.196167-3.1386719
			c-6.6974487-2.2322388-12.8255615-5.5351715-18.3011475-9.7784119c-0.4655762-0.372757-0.3261719-0.616806-0.0703735-0.7800598
			c5.3484497-3.6160278,12.4182739-7.2200012,21.0109863-6.4637299
			C740.0725708,147.5293579,749.9783325,153.7041321,753.9326172,165.7151184z M731.5140381,102.4632034
			c4.4651489,11.8239288,17.906189,24.4517212,23.4175415,33.5435867
			c6.9186401,11.3596497,5.9766846,20.2547455,3.6860962,25.8127289c-0.1273804,0.3141022-0.7321167,0.6630554-0.9882202-0.1739807
			c-4.2553101-13.2325287-15.2542725-19.6275482-27.9749146-19.6275482c-18.9990234,0-24.6270142,8.9882812-24.9639282,8.6510468
			c-10.7894287-11.5570831-21.8470459-23.9981537-23.0565186-62.3685989
			c-0.1749878-5.906601,1.2785034-16.9055481,3.8375854-21.5215454c0.894043-1.5933075,1.173645-0.6396027,1.3831177,1.1273499
			c0.2202759,1.5587769,0.5933838,4.5459366,1.7431641,6.9534988c1.7800293,3.6277618,4.4078369,5.3947144,4.6636353,5.5921555
			c0.8253174,0.709671,2.9646606,1.8718796,2.1849365-0.2902985c-3.2086792-8.7905121,1.3955078-24.6615639,3.9301758-28.8122749
			c0.3606567-0.5926743,0.6751709-0.9761658,0.9191284-1.0237656c0.3597412-0.0573235,0.4535522-0.1035843,0.5571899,0.8142509
			c0.2798462,1.8611488,0.7096558,6.965229,1.338501,9.7321472c0.37146,1.6157684,1.7786865,4.66259,4.3136597,7.0808792
			c1.9060669,1.7907562,2.3012695,0.755928,1.871521-0.8491135c-1.2788696-4.7896423,0.1739502-12.2084274,1.5574951-16.7781639
			c1.8265381-5.9994583,3.732605-9.1274109,4.6397095-10.8132362c1.3955688-2.6157341,1.5692139-1.4300537,1.6050415-0.0811234
			c0.0570068,1.6157646,0.6033936,8.4998703,2.8480835,12.4410706c1.0344849,1.8145523,1.9070435,2.0585938,1.9070435-1.4062538
			c0-10.6275253,10.243103-25.5103474,10.3825073-25.7543888c2.6278076-4.6042652,1.6167603-1.1977463,0.7562256,2.6861286
			C731.2354736,31.1991653,721.0390015,77.9290237,731.5140381,102.4632034z"/>
		<g>
			<path class="st0" d="M10.337244,214.084549c0,0.7438507,0,2.3941498,0.2547684,3.0109558
				c0.3140793,0.8487854,1.4072361,0.7203979,2.221489,0.7559204v0.5229492
				c-1.1977463-0.0120697-2.4192696-0.05867-3.6277657-0.081131c-1.1394176,0.0224609-2.2681079,0.0690613-3.4420528,0.081131
				v-0.5229492c0.7559242,0,1.720356,0,1.9881978-0.7559204c0.2215815-0.616806,0.2215815-2.2671051,0.2215815-3.0109558v-6.349762
				c0-0.7549286,0-2.4182892-0.2215815-3.0337524c-0.2903018-0.7797241-1.2322736-0.7679901-1.9881978-0.7679901v-0.5118866
				c1.2094784,0,2.3609867,0.0583191,3.5231762,0.0583191c1.1273727,0,2.2205067-0.0583191,3.3491964-0.0583191
				c2.5228767,0.0583191,5.3601904,1.0358276,5.3601904,3.9076691c0,3.2895355-3.2791357,4.0920563-6.0819216,4.0920563
				c-0.4069586,0-1.4535198-0.0583344-1.5570803-0.0583344V214.084549z M10.337244,210.7588196
				c0.4297304,0,0.918148,0.069046,1.3475895,0.069046c2.3954697,0,3.6052828-0.9999542,3.6052828-3.4299774
				c0-2.1742554-1.0703611-3.3136597-3.3253956-3.3136597c-1.7213392,0.0345154-1.6274767-0.0345306-1.6274767,1.0465546
				V210.7588196z"/>
			<path class="st0" d="M48.6717949,216.5145721c0.7559242,0.8370361,1.1048889,1.1618652,2.3012962,1.336853v0.5229492
				c-0.6975746-0.0120697-1.4059219-0.05867-2.1155586-0.081131c-0.5809631,0.0224609-1.1739693,0.0690613-1.7445183,0.081131
				l-1.104866-1.3026733l-3.8597603-4.6733246c-0.7787209-0.8263092-0.6858406-0.9774933-1.9302063-0.9774933v2.6636658
				c0,0.7438507,0,2.3941498,0.2095146,3.0109558c0.2906609,0.790451,1.2443428,0.7559204,2.010994,0.7559204v0.5229492
				c-1.092823-0.0120697-2.173912-0.05867-3.3015976-0.081131c-1.1739426,0.0224609-2.337162,0.0690613-3.5111084,0.081131
				v-0.5229492c0.7666512,0,1.720356,0,2.010994-0.7559204c0.1857109-0.616806,0.1857109-2.2671051,0.1857109-3.0109558v-6.3963623
				c0-0.7083282,0-2.3716888-0.1857109-2.9871521c-0.290638-0.7797241-1.2443428-0.7679901-2.010994-0.7679901v-0.5118866
				c1.3372002,0,2.6861305,0.0583191,4.0230179,0.0583191c0.9764748,0,1.9764404-0.0583191,2.9529381-0.0583191
				c2.6623306,0,5.3484573,0.5702057,5.3484573,3.7206116c0,2.4538269-1.8946686,3.6860962-4.2211075,3.8959503
				L48.6717949,216.5145721z M40.2181816,210.8054047c2.930172,0,5.0460892-0.0465851,5.0460892-3.3374634
				c0-1.9764557-1.1622124-3.3837128-3.267067-3.3837128c-0.278904,0-1.3016663-0.092865-1.4991112,0.0237885
				c-0.3144379,0.1394653-0.279911,0.5574799-0.279911,0.7907867V210.8054047z"/>
			<path class="st0" d="M69.6589966,207.8169098c0-0.7321167,0-2.4075623-0.2440414-3.0230255
				c-0.2906342-0.7441864-1.2564087-0.7441864-2.000267-0.7441864v-0.62854h11.5919571v3.4195862h-0.5346756
				c-0.4297562-2.6636658-1.6512985-2.7910461-4.1279144-2.7910461h-1.6965561
				c-0.7096634,0-0.6050797-0.0821381-0.6050797,0.9074402v5.3588562c3.1970367,0.1287231,3.6626282-1.1618805,3.8138428-2.8014526
				h0.5464096c-0.0345535,1.0582886-0.0583572,2.0810547-0.0928802,3.1038208
				c0.034523,0.9074402,0.0583267,1.861145,0.0928802,2.7910461h-0.5464096
				c-0.3265305-2.3716888-1.5467377-2.488678-3.8138428-2.488678v3.7209473c0,0.6630707,0,1.7441559,0.4297562,2.2788391
				c0.6051025,0.7797241,2.0585938,0.8263245,3.0005646,0.790451c2.4300232-0.0345306,3.9991913-0.3248291,4.3136292-3.0109558
				h0.5571365l-0.2319717,3.6398315h-12.696846v-0.523941c0.7438583,0,1.7096329,0,2.000267-0.7669983
				c0.2440414-0.6164703,0.2440414-2.2905579,0.2440414-2.9884949V207.8169098z"/>
			<path class="st0" d="M98.6221237,213.8163757h0.5346756c0.4652863,2.2670898,1.7320938,4.1969604,4.4182205,4.1969604
				c1.8252792,0,3.3253937-0.9999542,3.3253937-2.8252411c0-2.057251-1.8252792-2.8718414-3.5349045-3.5111084
				c-2.1155853-0.8025208-4.3944168-1.8718719-4.3944168-4.4648132c0-2.5694733,2.0693207-4.0578613,4.6277313-4.0578613
				c1.2788696,0,2.4766083,0.4180298,3.5111084,1.1622162l0.5584717-0.8953705h0.2547684l0.1049271,3.9076691h-0.5226059
				c-0.5467529-1.872879-1.6395721-3.5814972-3.9066696-3.5814972c-1.5121841,0-2.7323914,0.9419708-2.7323914,2.3954926
				c0,1.8014679,1.6623611,2.4300079,3.0920792,3.0112915c2.4538193,0.9644318,5.1278839,2.1276398,5.1278839,5.0923462
				c0,2.9536285-2.8252487,4.3836823-5.5338364,4.3836823c-1.6288376,0-2.8611145-0.4418182-4.1279144-1.3489227
				l-0.5467453,0.9654388h-0.2557755V213.8163757z"/>
			<path class="st0" d="M128.9462433,207.8169098c0-0.7321167,0-2.4075623-0.2215729-3.0230255
				c-0.3251648-0.7441864-1.2668076-0.7441864-2.010994-0.7441864v-0.62854h11.6040268v3.4195862h-0.5464172
				c-0.4538879-2.6636658-1.6395721-2.7910461-4.1282501-2.7910461h-1.6737671c-0.7217255,0-0.616806-0.0821381-0.616806,0.9074402
				v5.3588562c3.1980133,0.1287231,3.6622925-1.1618805,3.8134766-2.8014526h0.5346832
				c-0.0227966,1.0582886-0.0573273,2.0810547-0.1035767,3.1038208c0.0462494,0.9074402,0.08078,1.861145,0.1035767,2.7910461
				h-0.5346832c-0.3248291-2.3716888-1.5574341-2.488678-3.8134766-2.488678v3.7209473c0,0.6630707,0,1.7441559,0.4300995,2.2788391
				c0.6164703,0.7797241,2.046524,0.8263245,2.9881592,0.790451c2.4182892-0.0345306,4.011261-0.3248291,4.3136292-3.0109558
				h0.535675l-0.2095032,3.6398315h-12.696846v-0.523941c0.7441864,0,1.6858292,0,2.010994-0.7669983
				c0.2215729-0.6164703,0.2215729-2.2905579,0.2215729-2.9884949V207.8169098z"/>
			<path class="st0" d="M170.5596466,216.5145721c0.7324371,0.8370361,1.1048584,1.1618652,2.2788086,1.336853v0.5229492
				c-0.6976013-0.0120697-1.3834534-0.05867-2.1048584-0.081131c-0.5691986,0.0224609-1.139389,0.0690613-1.7441559,0.081131
				l-1.1038818-1.3026733l-3.8600769-4.6733246c-0.7679901-0.8263092-0.6751251-0.9774933-1.9311981-0.9774933v2.6636658
				c0,0.7438507,0,2.3941498,0.2215729,3.0109558c0.2681732,0.790451,1.2564087,0.7559204,1.9764709,0.7559204v0.5229492
				c-1.0693665-0.0120697-2.1742554-0.05867-3.2791443-0.081131c-1.1511383,0.0224609-2.3371277,0.0690613-3.4990387,0.081131
				v-0.5229492c0.7559204,0,1.7203522,0,1.9644012-0.7559204c0.2215729-0.616806,0.2215729-2.2671051,0.2215729-3.0109558
				v-6.3963623c0-0.7083282,0-2.3716888-0.2215729-2.9871521c-0.2440491-0.7797241-1.2084808-0.7679901-1.9644012-0.7679901
				v-0.5118866c1.3251343,0,2.6861267,0.0583191,4.0112915,0.0583191c0.9644012,0,1.9764404-0.0583191,2.9526062-0.0583191
				c2.6753998,0,5.3601837,0.5702057,5.3601837,3.7206116c0,2.4538269-1.9298706,3.6860962-4.2315063,3.8959503
				L170.5596466,216.5145721z M162.0942841,210.8054047c2.9422302,0,5.0591583-0.0465851,5.0591583-3.3374634
				c0-1.9764557-1.1404266-3.3837128-3.2908783-3.3837128c-0.2561035,0-1.2906036-0.092865-1.5001068,0.0237885
				c-0.3023682,0.1394653-0.2681732,0.5574799-0.2681732,0.7907867V210.8054047z"/>
			<path class="st0" d="M190.523056,206.7240906c-0.5930023-1.4300537-0.8836365-2.7327271-2.8134766-2.7910461v-0.5118866
				c1.1048584,0,2.1859436,0.0583191,3.3029022,0.0583191c1.1156158,0,2.2667694-0.0583191,3.4182739-0.0583191v0.5118866
				c-0.6634216,0-1.8266449,0-1.8266449,0.9299011c0,0.7800598,1.3955231,4.2673645,1.7562561,5.1865387l2.395462,5.7554169
				l2.2087708-5.2435303c0.4418182-1.1048889,1.7679596-4.5006866,1.7679596-5.5351715
				c0-1.1048889-0.9416046-1.0931549-1.8145447-1.0931549v-0.5118866c0.8729401,0,1.76828,0.0583191,2.6398621,0.0583191
				c0.8249817,0,1.6392365-0.0583191,2.4762726-0.0583191v0.5118866c-2.046524-0.011734-2.4300079,1.9181366-3.0347443,3.4303131
				l-4.7433929,11.4179688h-0.7096558L190.523056,206.7240906z"/>
			<path class="st0" d="M222.5796051,207.8169098c0-0.7321167,0-2.4075623-0.2098389-3.0230255
				c-0.3248444-0.7441864-1.2785339-0.7441864-2.0227356-0.7441864v-0.62854h11.6036835v3.4195862h-0.546402
				c-0.4418182-2.6636658-1.6620331-2.7910461-4.1386108-2.7910461h-1.6737976c-0.7217255,0-0.605072-0.0821381-0.605072,0.9074402
				v5.3588562c3.1970062,0.1287231,3.6622925-1.1618805,3.8134766-2.8014526h0.5229492
				c-0.0107269,1.0582886-0.0345306,2.0810547-0.081131,3.1038208c0.0466003,0.9074402,0.0704041,1.861145,0.081131,2.7910461
				h-0.5229492c-0.3368988-2.3716888-1.5701752-2.488678-3.8134766-2.488678v3.7209473c0,0.6630707,0,1.7441559,0.4297485,2.2788391
				c0.5930176,0.7797241,2.0468903,0.8263245,2.9767761,0.790451c2.4300079-0.0345306,4.0229797-0.3248291,4.3253632-3.0109558
				h0.522934l-0.1977692,3.6398315h-12.6968536v-0.523941c0.7442017,0,1.6978912,0,2.0227356-0.7669983
				c0.2098389-0.6164703,0.2098389-2.2905579,0.2098389-2.9884949V207.8169098z"/>
			<path class="st0" d="M273.6227722,210.7232819c0-1.0572815,0.9312439-1.9302063,2.0468445-1.9302063
				c1.0582886,0,1.9765015,0.8729248,1.9765015,1.9302063c0,1.0810852-0.9182129,1.9191437-2.03479,1.9191437
				C274.5540161,212.6424255,273.6227722,211.8043671,273.6227722,210.7232819z"/>
			<path class="st0" d="M322.562439,216.5145721c0.7562256,0.8370361,1.1048584,1.1618652,2.2787781,1.336853v0.5229492
				c-0.6858521-0.0120697-1.4072266-0.05867-2.0931091-0.081131c-0.5692139,0.0224609-1.1622009,0.0690613-1.7562256,0.081131
				l-1.0918274-1.3026733l-3.8838501-4.6733246c-0.7321472-0.8263092-0.6748047-0.9774933-1.9191589-0.9774933v2.6636658
				c0,0.7438507,0,2.3941498,0.2212524,3.0109558c0.2789001,0.790451,1.232605,0.7559204,1.9885254,0.7559204v0.5229492
				c-1.0693359-0.0120697-2.1742554-0.05867-3.3015442-0.081131c-1.1515198,0.0224609-2.3264465,0.0690613-3.5004272,0.081131
				v-0.5229492c0.7442017,0,1.7324219,0,2.0002747-0.7559204c0.2202454-0.616806,0.2202454-2.2671051,0.2202454-3.0109558
				v-6.3963623c0-0.7083282,0-2.3716888-0.2202454-2.9871521c-0.2678528-0.7797241-1.256073-0.7679901-2.0002747-0.7679901
				v-0.5118866c1.3251343,0,2.697876,0.0583191,4.011261,0.0583191c0.9882202,0,2.0002747-0.0583191,2.9643555-0.0583191
				c2.6636658,0,5.3497925,0.5702057,5.3497925,3.7206116c0,2.4538269-1.9074097,3.6860962-4.210022,3.8959503
				L322.562439,216.5145721z M314.0970459,210.8054047c2.9301758,0,5.0470886-0.0465851,5.0470886-3.3374634
				c0-1.9764557-1.163208-3.3837128-3.2670593-3.3837128c-0.2678528,0-1.2905884-0.092865-1.5118408,0.0237885
				c-0.3027039,0.1394653-0.2681885,0.5574799-0.2681885,0.7907867V210.8054047z"/>
			<path class="st0" d="M343.5150757,207.8169098c0-0.7321167,0-2.4075623-0.2215881-3.0230255
				c-0.3023682-0.7441864-1.256073-0.7441864-2.0227356-0.7441864v-0.62854h11.6036987v3.4195862h-0.5239563
				c-0.4522095-2.6636658-1.6499634-2.7910461-4.1383057-2.7910461h-1.6741028c-0.7217102,0-0.605072-0.0821381-0.605072,0.9074402
				v5.3588562c3.186615,0.1287231,3.6509094-1.1618805,3.8017578-2.8014526h0.5239563
				c-0.012085,1.0582886-0.0237732,2.0810547-0.0941772,3.1038208c0.0704041,0.9074402,0.0820923,1.861145,0.0941772,2.7910461
				h-0.5239563c-0.3141174-2.3716888-1.5691833-2.488678-3.8017578-2.488678v3.7209473c0,0.6630707,0,1.7441559,0.4180298,2.2788391
				c0.5930176,0.7797241,2.0585938,0.8263245,2.9884949,0.790451c2.4300232-0.0345306,4.011261-0.3248291,4.3136292-3.0109558
				h0.534668l-0.1977539,3.6398315H341.270752v-0.523941c0.7666626,0,1.7203674,0,2.0227356-0.7669983
				c0.2215881-0.6164703,0.2215881-2.2905579,0.2215881-2.9884949V207.8169098z"/>
			<path class="st0" d="M372.5009766,213.8163757h0.5343628c0.4773865,2.2670898,1.7216797,4.1969604,4.4078064,4.1969604
				c1.8253174,0,3.3254089-0.9999542,3.3254089-2.8252411c0-2.057251-1.8262939-2.8718414-3.5231628-3.5111084
				c-2.1286621-0.8025208-4.3957825-1.8718719-4.3957825-4.4648132c0-2.5694733,2.0813904-4.0578613,4.6159973-4.0578613
				c1.2788696,0,2.4887085,0.4180298,3.5231934,1.1622162l0.5464172-0.8953705h0.2561035l0.1166382,3.9076691h-0.535675
				c-0.5226135-1.872879-1.6278076-3.5814972-3.9066772-3.5814972c-1.4880371,0-2.7323914,0.9419708-2.7323914,2.3954926
				c0,1.8014679,1.6516418,2.4300079,3.1279602,3.0112915c2.4179688,0.9644318,5.1278992,2.1276398,5.1278992,5.0923462
				c0,2.9536285-2.8611145,4.3836823-5.5921631,4.3836823c-1.5933228,0-2.8269348-0.4418182-4.0699463-1.3489227
				l-0.558136,0.9654388h-0.2678528V213.8163757z"/>
			<path class="st0" d="M400.9998474,210.9328003c0-4.4993439,4.0454407-7.7784882,8.5689087-7.7784882
				c4.4527588,0,8.3832092,3.1396942,8.3832092,7.6390381c0,4.6280518-3.7672119,7.836792-8.4760437,7.836792
				C404.9299622,218.6301422,400.9998474,215.4904633,400.9998474,210.9328003z M403.9058838,210.9328003
				c0,3.5576935,1.4659119,7.0805359,5.6974182,7.0805359c4.1862793,0,5.4302368-3.7668762,5.4302368-7.1388702
				c0-3.394455-1.4535217-7.1271362-5.5576172-7.1271362C405.4408569,203.7473297,403.9058838,207.6074066,403.9058838,210.9328003z
				"/>
			<path class="st0" d="M449.1010742,216.5145721c0.7321472,0.8370361,1.0928345,1.1618652,2.2668152,1.336853v0.5229492
				c-0.6737976-0.0120697-1.3714294-0.05867-2.1038818-0.081131c-0.558136,0.0224609-1.1632385,0.0690613-1.7441711,0.081131
				l-1.0810852-1.3026733l-3.8838501-4.6733246c-0.7559509-0.8263092-0.6630859-0.9774933-1.9181519-0.9774933v2.6636658
				c0,0.7438507,0,2.3941498,0.2205811,3.0109558c0.2796021,0.790451,1.243988,0.7559204,1.9764404,0.7559204v0.5229492
				c-1.0693359-0.0120697-2.1625061-0.05867-3.3019104-0.081131c-1.1390991,0.0224609-2.3251038,0.0690613-3.4883118,0.081131
				v-0.5229492c0.7559204,0,1.721344,0,2.0119934-0.7559204c0.1977844-0.616806,0.1977844-2.2671051,0.1977844-3.0109558v-6.3963623
				c0-0.7083282,0-2.3716888-0.1977844-2.9871521c-0.2906494-0.7797241-1.256073-0.7679901-2.0119934-0.7679901v-0.5118866
				c1.3371887,0,2.6978455,0.0583191,4.0109253,0.0583191c1.0003052,0,1.9657288-0.0583191,2.9660339-0.0583191
				c2.662323,0,5.348114,0.5702057,5.348114,3.7206116c0,2.4538269-1.907074,3.6860962-4.2207642,3.8959503L449.1010742,216.5145721
				z M440.6367493,210.8054047c2.9301758,0,5.0460815-0.0465851,5.0460815-3.3374634
				c0-1.9764557-1.1739502-3.3837128-3.2670593-3.3837128c-0.2681885,0-1.2906189-0.092865-1.4884033,0.0237885
				c-0.3144226,0.1394653-0.2906189,0.5574799-0.2906189,0.7907867V210.8054047z"/>
			<path class="st0" d="M481.1693726,206.9443359h-0.6392822c-0.1286926-2.2087708-1.0241089-2.7897186-3.2207947-2.7897186
				c-0.8725891,0-2.2680664-0.1049194-2.2680664,0.5930023v10.696579c0,1.6975708,0.336853,2.3133698,2.5812073,2.4072266v0.5229492
				c-1.2547913-0.0120697-2.5812073-0.05867-3.848053-0.081131c-1.268158,0.0224609-2.4658813,0.0690613-3.7206116,0.081131
				v-0.5229492c2.2550354-0.0938568,2.5932617-0.7096558,2.5932617-2.4072266v-10.696579
				c0-0.6633911-1.0241089-0.5930023-1.9660645-0.5930023c-2.313385,0-3.4527893,0.1153107-3.5345764,2.7897186h-0.5346985
				v-3.5231781h14.3243408L481.1693726,206.9443359z"/>
			<path class="st0" d="M530.7124023,214.2819977l1.22052-1.965744c0.6630859-1.2785339,1.5467529-2.9419098,3.2446289-2.9419098
				c0.8712158,0,1.6737671,0.6168213,1.6737671,1.5001221c0,0.639267-0.5343628,1.256073-1.1977539,1.256073
				c-0.6738281,0-1.0452271-0.4880829-1.0452271-1.0928192c0-0.2098541,0.0928345-0.6858673-0.2333374-0.6858673
				c-0.6858521,0-1.5228882,1.5929718-1.7789917,2.03479l-1.1977539,2.0572662l-0.2319946,0.3144379
				c0.8833618,0.8608398,2.5228882,2.5932617,3.8134766,2.5932617c0.8370972,0,1.3835449-0.523941,1.9074097-1.082428
				l0.4060059,0.3489685c-0.9298706,1.1286926-1.9526978,1.9536743-3.5111084,1.9536743
				c-1.7548828,0-2.9301758-1.0583038-4.0695801-2.139389c-1.2905884,1.360672-2.9181519,2.1977081-4.8362427,2.1977081
				c-1.6513062,0-3.3720093-1.0703583-3.3720093-2.7323761c0-2.3254395,1.9765015-3.6398468,3.8362427-4.6625977
				c-0.9419556-1.2906036-1.6275024-2.7789917-1.6275024-4.3374329c0-2.0227203,1.4418335-3.7434235,3.6157227-3.7434235
				c1.8374023,0,3.1741943,1.1622162,3.1741943,2.9767761c0,1.8132019-1.6737671,3.3478546-3.1158447,4.3136292
				L530.7124023,214.2819977z M525.6428833,211.7007904c-1.0465698,0.9178314-2.0693359,1.5812378-2.0693359,3.1276093
				c0,1.4407806,1.0465088,2.7313843,2.6040039,2.7313843c1.2094727,0,2.3026123-0.7321167,3.0812988-1.5574341
				l-0.1273804-0.1045837L525.6428833,211.7007904z M528.9802856,206.2940063c0-1.1394196-0.4763184-2.5466766-1.9301758-2.5466766
				c-1.3143921,0-1.9536133,1.0002899-1.9536133,2.1276398c0,1.4883881,1.0344238,2.9767761,1.8952637,4.092392
				C528.2599487,209.1541138,528.9802856,207.8051758,528.9802856,206.2940063z"/>
			<path class="st0" d="M577.5006104,213.8163757h0.522583c0.4656372,2.2670898,1.7445068,4.1969604,4.4185791,4.1969604
				c1.8369751,0,3.3491821-0.9999542,3.3491821-2.8252411c0-2.057251-1.8608398-2.8718414-3.569397-3.5111084
				c-2.1052246-0.8025208-4.3840942-1.8718719-4.3840942-4.4648132c0-2.5694733,2.0814209-4.0578613,4.6281128-4.0578613
				c1.2908936,0,2.4765625,0.4180298,3.5348511,1.1622162l0.534729-0.8953705h0.2440186l0.1273804,3.9076691h-0.5463867
				c-0.534668-1.872879-1.6275024-3.5814972-3.8945923-3.5814972c-1.4884033,0-2.7324219,0.9419708-2.7324219,2.3954926
				c0,1.8014679,1.6513062,2.4300079,3.1038208,3.0112915c2.4196167,0.9644318,5.1282349,2.1276398,5.1282349,5.0923462
				c0,2.9536285-2.8372803,4.3836823-5.5700684,4.3836823c-1.5808716,0-2.8251953-0.4418182-4.0695801-1.3489227
				l-0.5571289,0.9654388h-0.2678223V213.8163757z"/>
			<path class="st0" d="M610.1618652,214.084549c0,0.7438507,0,2.3941498,0.2322998,3.0109558
				c0.3248291,0.8487854,1.4297485,0.7203979,2.2443237,0.7559204v0.5229492
				c-1.2215576-0.0120697-2.4299927-0.05867-3.6519165-0.081131c-1.1273193,0.0224609-2.2550049,0.0690613-3.4299927,0.081131
				v-0.5229492c0.7334595,0,1.7324219,0,1.9885254-0.7559204c0.2092285-0.616806,0.2092285-2.2671051,0.2092285-3.0109558v-6.349762
				c0-0.7549286,0-2.4182892-0.2092285-3.0337524c-0.2905884-0.7797241-1.2550659-0.7679901-1.9885254-0.7679901v-0.5118866
				c1.18573,0,2.3609619,0.0583191,3.5228882,0.0583191c1.1290283,0,2.210083-0.0583191,3.3374634-0.0583191
				c2.5466309,0.0583191,5.3839722,1.0358276,5.3839722,3.9076691c0,3.2895355-3.3253784,4.0920563-6.081604,4.0920563
				c-0.4297485,0-1.4883423-0.0583344-1.5574341-0.0583344V214.084549z M610.1618652,210.7588196
				c0.4297485,0,0.9178467,0.069046,1.3372192,0.069046c2.394165,0,3.6039429-0.9999542,3.6039429-3.4299774
				c0-2.1742554-1.0689697-3.3136597-3.3253784-3.3136597c-1.7203369,0.0345154-1.6157837-0.0345306-1.6157837,1.0465546
				V210.7588196z"/>
			<path class="st0" d="M637.1367798,213.4794769c-0.3727417,0.8491058-1.1048584,2.5228729-1.1048584,3.3944397
				c0,0.9775085,1.163208,0.9191895,1.883606,0.9775085v0.5229492c-0.883667-0.0120697-1.7207031-0.05867-2.5932617-0.081131
				c-0.8250122,0.0224609-1.6036987,0.0690613-2.418335,0.081131v-0.5229492
				c1.2561035-0.1404572,1.7790527-0.4998169,2.232605-1.5822449c0.6513062-1.4407806,1.2905884-2.8943024,1.9419556-4.3243561
				l3.5811768-8.8726349h0.7907715l4.7208862,11.4645691c0.2786255,0.5930023,0.7904663,1.965744,1.2084961,2.4766235
				c0.4890747,0.6630554,1.1977539,0.7441864,2.0002441,0.8380432v0.5229492
				c-1.1048584-0.0120697-2.220459-0.05867-3.3015747-0.081131c-1.1290283,0.0224609-2.2788086,0.0690613-3.3720093,0.081131
				v-0.5229492c0.6393433-0.011734,1.7669678,0.0345306,1.7669678-0.8487701c0-0.5702209-0.2678223-1.2443542-0.4656372-1.7679596
				l-0.9178467-2.3375092h-5.7553711L637.1367798,213.4794769z M642.8218384,212.1888733l-2.6036377-6.3601532l-2.569519,6.3601532
				H642.8218384z"/>
		</g>
	</g>
	<g>
		<path class="st0" d="M5.0303316,276.2406311c1.2537279-0.1180115,2.0361347-0.3650513,2.3469076-0.744873
			c0.3110628-0.3781128,0.4682813-1.2456665,0.4682813-2.6009827v-14.2616577c0-1.1471252-0.1766386-1.9017029-0.5239506-2.2667542
			c-0.3469543-0.3634033-1.1129351-0.5943604-2.2912383-0.6909027v-0.6121063h8.6815624
			c2.7890425,0,4.9203787,0.5417175,6.4000463,1.6254883c1.4796677,1.0817566,2.2195244,2.5074463,2.2195244,4.2767334
			c0,2.2392883-0.818634,3.8647766-2.4585361,4.87146c-1.6402397,1.0079956-3.6961288,1.5108337-6.1610346,1.5108337
			c-0.3536577,0-0.8052015-0.0067139-1.3586521-0.0231323c-0.5497627-0.0164185-0.9624205-0.0244751-1.2275801-0.0244751v5.9810181
			c0,1.2373047,0.1900702,2.014679,0.569541,2.3354797c0.3798056,0.3194885,1.2309332,0.5273132,2.5470114,0.6238708v0.6104431
			H5.0303316V276.2406311z M16.1409092,256.8966675c-0.9328985-0.4076233-2.1115599-0.6107788-3.5389328-0.6107788
			c-0.6741304,0-1.0901394,0.0673828-1.2440062,0.2014771c-0.1568842,0.1340942-0.2323084,0.4304199-0.2323084,0.8920288v8.5867004
			c0.5893421,0.0526123,0.9754944,0.085144,1.155508,0.0968628c0.1833658,0.0097351,0.360363,0.0144348,0.5303202,0.0144348
			c1.5125189,0,2.7008781-0.2142334,3.571784-0.6429749c1.5745335-0.7824097,2.3633099-2.2442932,2.3633099-4.3883667
			C18.7465839,259.0310364,17.8793659,257.6479187,16.1409092,256.8966675z"/>
		<path class="st0" d="M57.1039772,255.0633545v0.6121063c-1.2634735,0.085144-2.0850754,0.2963409-2.4585381,0.6352386
			c-0.3764534,0.3372498-0.5628357,1.1112671-0.5628357,2.3224182v10.531311c0,1.7270508,0.2356834,3.0722961,0.7069817,4.0364075
			c0.8772736,1.7582397,2.5470123,2.6371765,4.9988213,2.6371765c2.6908226,0,4.4980011-0.9003906,5.4212265-2.7008667
			c0.5138702-1.0083618,0.7693024-2.5617676,0.7693024-4.663269v-8.5706177c0-1.7887268-0.2128372-2.9117126-0.6416092-3.3682861
			c-0.4287491-0.4552307-1.2439804-0.7415161-2.4454422-0.8595123v-0.6121063h7.6242981v0.6121063
			c-1.2768784,0.1391144-2.1115799,0.4468536-2.5011063,0.924881c-0.3928833,0.4763489-0.589325,1.5778809-0.589325,3.3029175
			v8.5706177c0,2.273468-0.3469543,4.0461121-1.0442123,5.3229675c-1.2865753,2.347229-3.7286682,3.5208435-7.3296127,3.5208435
			c-3.5617294,0-5.984375-1.157196-7.2709541-3.4735718c-0.6939087-1.243988-1.0442123-2.8839111-1.0442123-4.9200439v-10.2909546
			c0-1.1997681-0.1833687-1.9690857-0.5531158-2.3059998c-0.3700829-0.3388977-1.1786156-0.5551147-2.4192924-0.6516571v-0.6121063
			H57.1039772z"/>
		<path class="st0" d="M95.9654922,276.2406311c1.2111588-0.1277161,1.9969177-0.3439331,2.3569412-0.6483154
			c0.3570099-0.3043823,0.5370255-1.0737305,0.5370255-2.3110352v-14.6481628c0-1.1685791-0.1766586-1.9312134-0.5303192-2.2915649
			c-0.3536606-0.3583527-1.1424332-0.5809479-2.3636475-0.6660919v-0.6121063h17.4945374l0.11129,4.7125244h-0.8350372
			c-0.2782288-1.4518433-0.697258-2.391449-1.2537231-2.8171997c-0.5598221-0.427063-1.8004761-0.6399231-3.7320251-0.6399231
			h-4.481575c-0.4843674,0-0.782402,0.0770874-0.897049,0.2322998c-0.11129,0.1555481-0.1669388,0.4485168-0.1669388,0.875946
			v7.3493958h5.0809479c1.4042435,0,2.2979431-0.2081909,2.6841202-0.6238708
			c0.3865051-0.4173279,0.697258-1.2587585,0.9332504-2.5289001h0.7723541v7.6065063h-0.7723541
			c-0.2457123-1.2768555-0.5631714-2.1195984-0.9493408-2.5322571c-0.3865128-0.412323-1.2768631-0.6204834-2.6680298-0.6204834
			h-5.0809479v8.1532288c0,0.6530151,0.2064972,1.0391846,0.6188202,1.157196
			c0.4126511,0.1176758,1.6499557,0.1766663,3.7122345,0.1766663c2.2325745,0,3.8795242-0.2437134,4.9431763-0.7314453
			c1.0639954-0.4877625,2.0166931-1.6697388,2.8644714-3.5456543h0.9168243l-1.4960938,5.5636902h-17.798912V276.2406311z"/>
		<path class="st0" d="M140.5787659,276.2406311c1.2637787-0.1180115,2.0525513-0.3634033,2.3636475-0.7364807
			c0.3110809-0.3734436,0.4646149-1.2423401,0.4646149-2.609375v-14.2616577c0-1.157196-0.1733093-1.9147949-0.5202637-2.2751465
			c-0.3503113-0.3583527-1.1196442-0.585968-2.3079987-0.6825104v-0.6121063h9.1170197
			c1.8956757,0,3.4765778,0.2423553,4.7437134,0.7234039c2.3995361,0.9101105,3.6009521,2.584549,3.6009521,5.0249786
			c0,1.6385498-0.5336761,2.8956299-1.6010284,3.7728882c-1.0670013,0.8789673-2.5141602,1.4568787-4.3471222,1.7351074
			l6.7828522,8.3577576c0.4190216,0.5105286,0.8380432,0.8822937,1.2570801,1.116272
			c0.4156647,0.2340088,0.9526978,0.382843,1.6073761,0.4468689v0.6104431h-5.3031921l-8.2397461-10.1464844l-1.4438019,0.0817871
			v6.4898682c0,1.217865,0.1867218,1.9888916,0.5531158,2.3143921c0.3700867,0.3258362,1.1786346,0.5420532,2.4226532,0.6499939
			v0.6104431h-9.1498718V276.2406311z M151.8334808,264.8236389c1.7481842-0.7166748,2.6221313-2.0639343,2.6221313-4.0444336
			c0-1.903717-0.7824249-3.2033691-2.3469086-3.8989563c-0.8380585-0.3747864-1.9479675-0.5614929-3.329422-0.5614929
			c-0.9329224,0-1.5027924,0.0670471-1.7123108,0.1997986c-0.2095032,0.1340637-0.3141022,0.4468384-0.3141022,0.9396057v8.1053162
			C149.122879,265.4783325,150.8154144,265.2312927,151.8334808,264.8236389z"/>
		<path class="st0" d="M185.3522644,255.0633545h18.6205444l0.177002,5.5961914h-0.7857666
			c-0.3861694-1.7579041-0.8772736-2.9020386-1.4732971-3.4323425c-0.5956879-0.5320129-1.8460541-0.7971497-3.7548065-0.7971497
			h-1.8333282v16.8512268c0,1.2684937,0.1998138,2.0559082,0.5960236,2.3586121
			c0.3958893,0.3043823,1.263443,0.5041809,2.6056671,0.6007385v0.6104431h-9.6014099v-0.6104431
			c1.3945312-0.1065979,2.262085-0.3372498,2.6056824-0.6892395c0.3435974-0.3519592,0.5139008-1.2372742,0.5139008-2.6566162
			v-16.4647217h-1.8494263c-1.8202515,0-3.0608978,0.2634888-3.72229,0.789093
			c-0.6580505,0.5252991-1.1521606,1.6710815-1.4860382,3.4403992h-0.8021851L185.3522644,255.0633545z"/>
		<path class="st0" d="M233.0395203,257.5087891c2.026413-1.9412689,4.5211334-2.9104004,7.4771118-2.9104004
			c2.9690552,0,5.4671326,0.9754944,7.4935455,2.9251404c2.1963654,2.1132507,3.2962189,4.9267578,3.2962189,8.4425659
			c0,3.5684204-1.1357269,6.4100952-3.4078217,8.5213318c-2.0361633,1.8872986-4.4976959,2.8302612-7.3819427,2.8302612
			c-3.0870209,0-5.6471405-1.0458984-7.6832733-3.136322c-2.068985-2.1326904-3.1034851-4.8711243-3.1034851-8.215271
			C229.7298737,262.4502869,230.8330994,259.6300659,233.0395203,257.5087891z M235.5047302,273.6430054
			c1.3617096,1.656311,3.0347595,2.4846497,5.0216217,2.4846497c1.9412689,0,3.6009827-0.8068848,4.9827271-2.419281
			c1.3780975-1.6137695,2.0686493-4.1953125,2.0686493-7.7422791c0-3.5909119-0.7002716-6.1855164-2.0951233-7.7828369
			c-1.3945312-1.5976562-3.0475006-2.3964996-4.9562531-2.3964996c-1.9737549,0-3.6468658,0.8283234-5.0152435,2.4846649
			c-1.3683777,1.6566467-2.0525665,4.2214355-2.0525665,7.6946716
			C233.4585419,269.4282532,234.1397095,271.9863281,235.5047302,273.6430054z"/>
		<path class="st0" d="M318.4753723,255.0633545v0.5631714c-0.8249817,0.0113831-1.3847961,0.0653687-1.6861572,0.1635742
			c-0.5236206,0.173645-0.7854309,0.528656-0.7854309,1.0623169c0,0.2715454,0.0915222,0.6530151,0.28125,1.1424561
			c0.1867371,0.4894104,0.5370178,1.3029785,1.0475769,2.4403992l5.15271,11.4628906l4.6813354-12.4088745
			c0.2065125-0.5497742,0.3633728-1.01474,0.4683228-1.3962097c0.1079407-0.3798218,0.1636047-0.6905518,0.1636047-0.9312439
			c0-0.6416016-0.2748718-1.0770569-0.8216553-1.306366c-0.3208008-0.1307373-0.8511047-0.2061615-1.587616-0.2289429v-0.5631714
			h6.736969v0.5631714c-0.6972656,0.0965424-1.2111816,0.2845917-1.5450439,0.5628357
			c-0.5041809,0.4190063-1.0016479,1.260437-1.4960938,2.5258789l-7.2903748,18.5220032h-0.4974976l-8.1385193-18.0999451
			c-0.6841736-1.5353088-1.2339478-2.4910278-1.6466064-2.8658142c-0.412323-0.3767853-1.0147095-0.5909882-1.8101807-0.6449585
			v-0.5631714H318.4753723z"/>
		<path class="st0" d="M353.7027893,276.8510742v-0.6104431c0.848114-0.0965576,1.4830017-0.4143372,1.9053955-0.9560547
			c0.4257202-0.5417175,1.1491394-2.0247498,2.1769104-4.4453735l6.8616638-16.1603546h0.6546936l8.2072144,18.6678009
			c0.5464172,1.2359619,0.9818726,2.0019531,1.3093872,2.2932434c0.3272095,0.2946777,0.8772583,0.4941406,1.6466064,0.6007385
			v0.6104431h-8.374176v-0.6104431c0.9624329-0.085144,1.5845947-0.190094,1.8628235-0.3127747
			s0.4156799-0.4237061,0.4156799-0.9034119c0-0.1605835-0.0523071-0.443512-0.1602478-0.8477783
			c-0.1049194-0.4059448-0.2554321-0.833374-0.4485168-1.2818909l-1.319397-3.1671753h-8.6782532
			c-0.8544617,2.1558228-1.3653564,3.4702148-1.5322876,3.9448853s-0.2487488,0.8494568-0.2487488,1.1276855
			c0,0.5548096,0.2259521,0.9396362,0.674469,1.1521606c0.2782288,0.1277161,0.8018494,0.2242737,1.5711975,0.2882996v0.6104431
			H353.7027893z M367.8843689,268.3937683l-3.7712402-9.0680847l-3.790741,9.0680847H367.8843689z"/>
		<path class="st0" d="M401.8680725,276.2406311c1.2111816-0.1277161,1.9968872-0.3439331,2.3569336-0.6483154
			c0.3569946-0.3043823,0.5370483-1.0737305,0.5370483-2.3110352v-14.6481628c0-1.1685791-0.1766968-1.9312134-0.530365-2.2915649
			c-0.3536377-0.3583527-1.142395-0.5809479-2.3636169-0.6660919v-0.6121063h9.2940063v0.6121063
			c-1.2114868,0.0640259-2.0230713,0.2618103-2.43573,0.5943451c-0.412323,0.3322144-0.6187744,1.0458984-0.6187744,2.1390381
			v15.8217773c0,0.3650818,0.05896,0.6513367,0.1833191,0.8591919c0.1243591,0.2095032,0.3962402,0.3405762,0.8152771,0.3945618
			c0.2453613,0.0328369,0.5041504,0.0539551,0.7790527,0.0636902c0.2748718,0.0117188,0.7857361,0.0164185,1.5386658,0.0164185
			c2.9298096,0,4.9103088-0.2406921,5.938446-0.7234192c1.0311279-0.4826965,2.0297546-1.715332,2.9951782-3.6974792h0.8380737
			l-1.6104126,5.707489h-17.7171021V276.2406311z"/>
		<path class="st0" d="M446.4813232,276.2406311c1.2111511-0.1277161,1.9969482-0.3439331,2.3569336-0.6483154
			c0.3570251-0.3043823,0.5370483-1.0737305,0.5370483-2.3110352v-14.6481628c0-1.1685791-0.1766663-1.9312134-0.5303345-2.2915649
			c-0.3536682-0.3583527-1.1424255-0.5809479-2.3636475-0.6660919v-0.6121063h9.2940063v0.6121063
			c-1.2114868,0.0640259-2.0230408,0.2618103-2.4356995,0.5943451c-0.412323,0.3322144-0.6188354,1.0458984-0.6188354,2.1390381
			v15.8217773c0,0.3650818,0.059021,0.6513367,0.1833801,0.8591919c0.1243591,0.2095032,0.3962402,0.3405762,0.8152466,0.3945618
			c0.2453918,0.0328369,0.5041809,0.0539551,0.7790527,0.0636902c0.2749023,0.0117188,0.7857666,0.0164185,1.5386658,0.0164185
			c2.9298401,0,4.9103394-0.2406921,5.938446-0.7234192c1.031189-0.4826965,2.0294495-1.715332,2.9952087-3.6974792h0.8380432
			l-1.6103821,5.707489h-17.7171326V276.2406311z"/>
		<path class="st0" d="M491.2125854,276.8510742v-0.6104431c0.8478088-0.0965576,1.4826965-0.4143372,1.9050598-0.9560547
			c0.4257507-0.5417175,1.1491394-2.0247498,2.1769409-4.4453735l6.8616333-16.1603546h0.6547241l8.2072144,18.6678009
			c0.5463867,1.2359619,0.981842,2.0019531,1.3093567,2.2932434c0.3272095,0.2946777,0.8772583,0.4941406,1.6466064,0.6007385
			v0.6104431h-8.374115v-0.6104431c0.9627075-0.085144,1.5845337-0.190094,1.862793-0.3127747
			c0.2782288-0.1226807,0.4156494-0.4237061,0.4156494-0.9034119c0-0.1605835-0.0522766-0.443512-0.1602173-0.8477783
			c-0.1049194-0.4059448-0.2554321-0.833374-0.4485474-1.2818909l-1.3194275-3.1671753h-8.6781921
			c-0.8544922,2.1558228-1.3653564,3.4702148-1.5323181,3.9448853c-0.1669312,0.4746704-0.2487183,0.8494568-0.2487183,1.1276855
			c0,0.5548096,0.2259521,0.9396362,0.674469,1.1521606c0.2782288,0.1277161,0.8021851,0.2242737,1.571167,0.2882996v0.6104431
			H491.2125854z M505.3937988,268.3937683l-3.7712402-9.0680847l-3.7906799,9.0680847H505.3937988z"/>
		<path class="st0" d="M539.3775635,276.2406311c1.2637329-0.1180115,2.0525513-0.3634033,2.3636475-0.7364807
			c0.3110352-0.3734436,0.4649658-1.2423401,0.4649658-2.609375v-14.2616577c0-1.157196-0.1737061-1.9147949-0.5206299-2.2751465
			c-0.3503418-0.3583527-1.1196289-0.585968-2.3079834-0.6825104v-0.6121063h9.1170044
			c1.8956299,0,3.4769287,0.2423553,4.7437134,0.7234039c2.3994751,0.9101105,3.6009521,2.584549,3.6009521,5.0249786
			c0,1.6385498-0.5336304,2.8956299-1.600708,3.7728882c-1.0673218,0.8789673-2.5141602,1.4568787-4.3474731,1.7351074
			l6.7828369,8.3577576c0.4190674,0.5105286,0.8380737,0.8822937,1.2570801,1.116272
			c0.4160156,0.2340088,0.9526978,0.382843,1.6074219,0.4468689v0.6104431h-5.3032227l-8.2397461-10.1464844l-1.4437256,0.0817871
			v6.4898682c0,1.217865,0.1866455,1.9888916,0.5534058,2.3143921c0.369751,0.3258362,1.1782837,0.5420532,2.4223022,0.6499939
			v0.6104431h-9.1498413V276.2406311z M550.6322632,264.8236389c1.7481689-0.7166748,2.6224365-2.0639343,2.6224365-4.0444336
			c0-1.903717-0.7824097-3.2033691-2.347229-3.8989563c-0.8380737-0.3747864-1.947998-0.5614929-3.3294067-0.5614929
			c-0.9329224,0-1.5024414,0.0670471-1.7119751,0.1997986c-0.2095337,0.1340637-0.3143921,0.4468384-0.3143921,0.9396057v8.1053162
			C547.9216919,265.4783325,549.6141968,265.2312927,550.6322632,264.8236389z"/>
		<path class="st0" d="M584.1513672,255.0633545h18.6205444l0.1766968,5.5961914h-0.7857666
			c-0.3861694-1.7579041-0.8772583-2.9020386-1.4729614-3.4323425c-0.5960693-0.5320129-1.8464355-0.7971497-3.755188-0.7971497
			h-1.8329468v16.8512268c0,1.2684937,0.1994019,2.0559082,0.5957031,2.3586121
			c0.3961792,0.3043823,1.2637939,0.5041809,2.6056519,0.6007385v0.6104431h-9.6014404v-0.6104431
			c1.3945312-0.1065979,2.262085-0.3372498,2.6057129-0.6892395c0.3439331-0.3519592,0.5142212-1.2372742,0.5142212-2.6566162
			v-16.4647217h-1.8497314c-1.8202515,0-3.0609741,0.2634888-3.7223511,0.789093
			c-0.6577148,0.5252991-1.1521606,1.6710815-1.4860229,3.4403992h-0.802124L584.1513672,255.0633545z"/>
		<path class="st0" d="M625.9883423,276.8510742v-0.6104431c0.8480835-0.0965576,1.4830322-0.4143372,1.9053955-0.9560547
			c0.425415-0.5417175,1.1491699-2.0247498,2.1769409-4.4453735l6.8616333-16.1603546h0.6546631l8.2069092,18.6678009
			c0.5467529,1.2359619,0.9821777,2.0019531,1.3097534,2.2932434c0.3271484,0.2946777,0.8772583,0.4941406,1.6465454,0.6007385
			v0.6104431h-8.3741455v-0.6104431c0.9624023-0.085144,1.5845947-0.190094,1.862854-0.3127747
			c0.2781982-0.1226807,0.4156494-0.4237061,0.4156494-0.9034119c0-0.1605835-0.0523071-0.443512-0.1602173-0.8477783
			c-0.1049194-0.4059448-0.2554321-0.833374-0.4485474-1.2818909l-1.319397-3.1671753h-8.6782227
			c-0.8544922,2.1558228-1.3653564,3.4702148-1.5322876,3.9448853c-0.1669922,0.4746704-0.2487793,0.8494568-0.2487793,1.1276855
			c0,0.5548096,0.2259521,0.9396362,0.6744995,1.1521606c0.2781982,0.1277161,0.8018188,0.2242737,1.571167,0.2882996v0.6104431
			H625.9883423z M640.1698608,268.3937683l-3.7712402-9.0680847l-3.7910156,9.0680847H640.1698608z"/>
	</g>
</g>
</svg>
