<svg xmlns="http://www.w3.org/2000/svg" width="302.64" height="116.709" viewBox="0 0 302.64 116.709">
  <g id="blanca-blue-01" transform="translate(-7.885 -5.4)">
    <path id="Path_2080" data-name="Path 2080" d="M159.193,82.383H8.822c-.933,0-.933,0-.933-.905V6.25c0-.96-.11-.823.8-.823q150.536,0,301.044-.027c.6,0,.8.11.8.768q-.041,37.737,0,75.474c0,.658-.192.768-.8.768q-75.268-.041-150.536-.027M246.628,7.128H185.174c-.96,0-.85-.11-.85.85v71.8c0,.96-.11.85.85.85h122.8c.933,0,.823.11.823-.823V7.951c0-.933.11-.823-.823-.823H246.628M48.109,45.4a10.79,10.79,0,0,0,3.4-2.3,9.324,9.324,0,0,0,2.551-5.844,10.3,10.3,0,0,0-2.99-8.834A11.641,11.641,0,0,0,42.9,25.263c-4.719-.11-9.465-.027-14.184-.055-.658,0-.768.192-.768.8q.041,21.934,0,43.869c0,.576.11.768.741.741,4.966-.027,9.959-.027,14.925,0a24.415,24.415,0,0,0,3.457-.247c6.145-.933,10.343-5.075,10.919-11.248a12.164,12.164,0,0,0-7.6-12.867c-.686-.3-1.427-.549-2.277-.85M89.92,67.979v1.289c0,1.344,0,1.317,1.344,1.344.494,0,.6-.137.6-.631-.027-4.28,0-8.56,0-12.812a11.538,11.538,0,0,0-.219-2.387,6.526,6.526,0,0,0-4.088-5.268c-3.567-1.372-8.368-.741-11.084,2.716-.8,1.043-.823.988.247,1.728.357.247.521.165.741-.165a6.582,6.582,0,0,1,1.7-1.783A8.1,8.1,0,0,1,85.64,50.75a4.7,4.7,0,0,1,3.923,3.7A18.781,18.781,0,0,1,89.92,57.2c.055.549-.082.768-.686.741-2.14-.027-4.28,0-6.447-.027a11.24,11.24,0,0,0-4.993,1.015,5.751,5.751,0,0,0-3.484,5.268,5.887,5.887,0,0,0,3.32,5.761,10.531,10.531,0,0,0,8.4.549,8.887,8.887,0,0,0,3.9-2.524m73.279-.165c0,.85.027,1.536,0,2.25,0,.384.055.549.494.549,1.454,0,1.454.027,1.454-1.427V68.2c0-4.088.055-8.176-.055-12.263a6.678,6.678,0,0,0-3.182-5.9,9.055,9.055,0,0,0-5.487-1.125,8.824,8.824,0,0,0-6.667,3.4c-.768.96-.768.933.247,1.646.412.274.549.192.8-.192a6.6,6.6,0,0,1,2.579-2.332,8.57,8.57,0,0,1,5.542-.658,4.729,4.729,0,0,1,3.923,3.731,12.685,12.685,0,0,1,.3,2.881c.027.466-.11.6-.576.6-2.167-.027-4.335,0-6.5,0a12.24,12.24,0,0,0-4.088.631c-2.743.96-4.307,2.936-4.362,5.542a6.111,6.111,0,0,0,4.088,6.283c3.457,1.289,8.532,1.043,11.5-2.634M101.689,53.137V50.723c0-1.344,0-1.317-1.317-1.344-.549-.027-.686.137-.686.686.027,6.447,0,12.894,0,19.342,0,1.207,0,1.18,1.235,1.235.658.027.768-.219.768-.8-.027-4.006-.082-8.011.027-12.017a6.893,6.893,0,0,1,3.841-6.283,8.4,8.4,0,0,1,6.31-.576,4.8,4.8,0,0,1,3.375,3.1,9.539,9.539,0,0,1,.576,3.4V69.186c0,1.481,0,1.481,1.509,1.454.384,0,.466-.137.466-.494-.027-4.527.027-9.054-.055-13.58a7.255,7.255,0,0,0-2.387-5.6c-2.716-2.359-5.844-2.551-9.108-1.509a8.318,8.318,0,0,0-4.554,3.676M65.283,46.854V69.488c0,1.125,0,1.125,1.152,1.125.933,0,.823.11.823-.8V24.467c0-1.262,0-1.235-1.262-1.262-.549-.027-.741.137-.741.713q.041,11.44.027,22.936m60.659,13.169v-.549A9.278,9.278,0,0,1,128.9,52.7a8.661,8.661,0,0,1,7.49-2,7.7,7.7,0,0,1,3.978,1.756c.85.741.823.713,1.728,0,.384-.329.384-.494,0-.85a10.951,10.951,0,0,0-18.135,6.776c-.933,6.831,4.088,13.114,11.193,12.73a11.066,11.066,0,0,0,7.6-3.1c.384-.384.357-.631-.055-.905a.6.6,0,0,1-.274-.247c-.439-.576-.741-.384-1.18.055a9.508,9.508,0,0,1-11.55.988c-2.689-1.893-3.731-4.664-3.759-7.874" transform="translate(0)" fill="#5e80b8"/>
    <path id="Path_2081" data-name="Path 2081" d="M287,393.746c-.933,2-1.866,3.978-2.771,5.981a.868.868,0,0,1-.878.549,1.466,1.466,0,0,1-1.7-1.043c-.741-1.728-1.646-3.429-2.469-5.13a1.277,1.277,0,0,0-.384-.494v5.652c0,.96,0,.96-.96.96-.933,0-.933,0-.933-.933v-9.547c0-.494.082-.658.658-.713a1.616,1.616,0,0,1,1.893,1.207c1.07,2.359,2.25,4.664,3.375,7a1.892,1.892,0,0,1,.192.357c.549-1.152,1.043-2.195,1.536-3.265.741-1.591,1.509-3.21,2.222-4.829a.7.7,0,0,1,.8-.494c1.372.027,1.372,0,1.372,1.372v9.218c0,.466-.137.576-.576.576-1.317-.027-1.317,0-1.317-1.317v-5.185c0,.11-.027.11-.055.082" transform="translate(-195.211 -278.359)" fill="#22375e"/>
    <path id="Path_2082" data-name="Path 2082" d="M522.958,392.716a.99.99,0,0,0-.11.658c0,2.167-.027,4.335,0,6.5,0,.439-.11.549-.549.549-1.4-.027-1.4,0-1.4-1.372v-9.218c0-.439.11-.549.576-.6a2.062,2.062,0,0,1,2.195,1.125c1.372,2.085,2.853,4.088,4.28,6.145.11.137.165.329.411.439v-7.133c0-.412.082-.576.521-.549,1.372.027,1.372,0,1.372,1.372v9.218c0,.466-.137.549-.576.576a1.97,1.97,0,0,1-2.085-1.07c-1.482-2.222-3.073-4.39-4.637-6.639" transform="translate(-372.27 -278.508)" fill="#22375e"/>
    <path id="Path_2083" data-name="Path 2083" d="M774.43,392.667a.916.916,0,0,0-.11.631v6.5c0,.384-.082.521-.494.521-1.427,0-1.427,0-1.427-1.4V389.7c0-.412.082-.521.521-.576a2.043,2.043,0,0,1,2.195,1.125c1.4,2.14,2.908,4.2,4.362,6.31l.329.439v-7.38c0-.357.055-.494.466-.494,1.4,0,1.4-.027,1.4,1.4v9.218c0,.412-.11.494-.521.549a2.08,2.08,0,0,1-2.195-1.125c-1.344-2.085-2.8-4.06-4.225-6.091a3.235,3.235,0,0,1-.3-.411" transform="translate(-554.77 -278.433)" fill="#22375e"/>
    <path id="Path_2084" data-name="Path 2084" d="M819.5,394.969v-5.076c0-.384.082-.494.466-.494,2.195.027,4.39.027,6.557,0,.357,0,.439.137.439.466.027,1.427.027,1.427-1.372,1.427h-3.7c-.329,0-.466.082-.466.439.027.631.027,1.235,0,1.866-.027.412.165.466.494.466,1.207-.027,2.442,0,3.649,0,.329,0,.466.082.466.439.027,1.454.027,1.454-1.427,1.454-.905,0-1.811.027-2.716,0-.411-.027-.494.137-.466.494.027.6.027,1.207,0,1.783-.027.411.137.466.494.466,1.509-.027,3.018,0,4.527-.027.439,0,.549.11.549.549-.027,1.344,0,1.344-1.344,1.344-1.866,0-3.7-.027-5.569,0-.494,0-.576-.137-.576-.576v-5.021" transform="translate(-588.949 -278.65)" fill="#22375e"/>
    <path id="Path_2085" data-name="Path 2085" d="M334.027,394.924V389.9c0-.439.055-.6.549-.6,2.113.027,4.252.027,6.365,0,.439,0,.549.11.549.549-.027,1.344,0,1.344-1.344,1.344-1.235,0-2.469.027-3.7,0-.411,0-.521.137-.494.521.027.6.027,1.207,0,1.783-.027.357.11.439.466.439,1.207-.027,2.442,0,3.649-.027.412,0,.521.137.494.521,0,1.372,0,1.372-1.372,1.372-.933,0-1.866.027-2.8,0-.357,0-.466.11-.466.439.027.6.027,1.207,0,1.783-.027.412.11.521.521.521,1.509-.027,3.018,0,4.527-.027.384,0,.549.055.521.494,0,1.4.027,1.4-1.372,1.4-1.866,0-3.7-.027-5.569,0-.439,0-.549-.11-.549-.549.055-1.591.027-3.265.027-4.938" transform="translate(-236.646 -278.577)" fill="#22375e"/>
    <path id="Path_2086" data-name="Path 2086" d="M650.475,393.417v-3.594c0-.357.11-.439.439-.439,1.482-.027,1.482-.027,1.482,1.454,0,1.893-.027,3.786,0,5.706.082,3.21-2.277,4.2-4.335,4.143a3.843,3.843,0,0,1-3.978-2.881,3.724,3.724,0,0,1-.082-.8V389.96c0-.412.055-.576.521-.576,1.372.027,1.372,0,1.372,1.372v5.9a1.9,1.9,0,0,0,1.372,2.03,2.724,2.724,0,0,0,2.936-.768,1.841,1.841,0,0,0,.274-1.07v-3.429" transform="translate(-461.597 -278.633)" fill="#22375e"/>
    <path id="Path_2087" data-name="Path 2087" d="M368.9,389.284c2.25-.11,2.25-.11,3.484,1.619.521.741,1.043,1.482,1.646,2.277.411-.576.8-1.1,1.152-1.619a5.431,5.431,0,0,0,.658-.96c.631-1.536,1.866-1.509,3.265-1.289-1.043,1.454-2.03,2.853-3.045,4.28-.878,1.235-.878,1.207,0,2.442,1.015,1.427,2.03,2.853,3.1,4.362h-2.112c-.274,0-.357-.192-.466-.357-.713-1.015-1.427-2.03-2.14-3.018-.137-.192-.274-.357-.411-.576-.878,1.235-1.728,2.387-2.551,3.567a.771.771,0,0,1-.713.384c-.576-.027-1.18,0-1.783,0,0-.274.165-.384.247-.521,1.042-1.482,2.085-2.963,3.182-4.417a.878.878,0,0,0,.027-1.262c-1.125-1.481-2.167-3.018-3.265-4.527a1.748,1.748,0,0,1-.274-.384" transform="translate(-261.971 -278.506)" fill="#22375e"/>
    <path id="Path_2088" data-name="Path 2088" d="M716.687,392.013c-.439.11-.768,0-.96-.631-.219-.658-1.152-.878-1.948-.631a1.424,1.424,0,0,0,.384,2.8,7.5,7.5,0,0,1,1.1.137,3.321,3.321,0,0,1-.905,6.557,3.315,3.315,0,0,1-3.429-2.551c-.137-.686-.11-.741.576-.741a5.721,5.721,0,0,0,.686,0,.54.54,0,0,1,.686.466,1.53,1.53,0,0,0,1.728.905,1.493,1.493,0,0,0,1.372-1.289,1.533,1.533,0,0,0-1.207-1.536c-.466-.11-.933-.11-1.4-.219a3.033,3.033,0,0,1-2.469-3.347,3.317,3.317,0,0,1,2.908-3.128,3.377,3.377,0,0,1,3.951,2.469c.165.741.165.741-.6.741Z" transform="translate(-510.114 -278.19)" fill="#22375e"/>
    <path id="Path_2089" data-name="Path 2089" d="M444.044,388.8a5.727,5.727,0,0,1,3.841,1.317c.274.247.357.411.027.658l-.082.082c-.274.274-.521.686-.85.8-.357.137-.631-.357-.96-.521a3.611,3.611,0,0,0-5.4,3.265,3.647,3.647,0,0,0,5.926,3.155c.3-.219.439-.219.686.055,1.125,1.125,1.125,1.18-.274,1.975a5.554,5.554,0,0,1-8.285-4.554c-.165-2.963,1.289-5.213,3.841-5.981a6.258,6.258,0,0,1,1.536-.247" transform="translate(-312.588 -278.214)" fill="#22375e"/>
    <path id="Path_2090" data-name="Path 2090" d="M603.8,388.8a5.384,5.384,0,0,1,3.594,1.262c.3.247.439.466.055.741-.027,0-.027.027-.055.055-.274.274-.521.658-.85.8-.384.165-.631-.357-.96-.521a3.759,3.759,0,1,0,.631,6.392c.082-.055.165-.247.3-.137a12.822,12.822,0,0,1,1.207,1.235c.11.137-.137.274-.274.357a5.546,5.546,0,0,1-8.971-2.743,5.769,5.769,0,0,1,1.92-6.31,5.193,5.193,0,0,1,3.4-1.125" transform="translate(-428.388 -278.211)" fill="#22375e"/>
    <path id="Path_2091" data-name="Path 2091" d="M488.844,399.45c-.384,0-.686-.027-.988,0-.8.137-1.317-.082-1.427-.96-.055-.3-.274-.357-.549-.357-.96,0-1.948.027-2.908,0-.439-.027-.658.11-.741.521a.83.83,0,0,1-1.1.768,9.252,9.252,0,0,0-1.235,0c1.481-3.813,2.936-7.6,4.472-11.523,1.509,3.951,2.963,7.737,4.472,11.55m-3.182-2.936c-.439-1.235-.85-2.387-1.289-3.731-.439,1.262-.823,2.332-1.207,3.4-.11.274.027.3.247.3.713,0,1.427.027,2.25.027" transform="translate(-342.518 -277.561)" fill="#22375e"/>
    <path id="Path_2092" data-name="Path 2092" d="M415.212,400.711c-.6,0-1.207-.027-1.783,0-.357.027-.466-.11-.439-.466a1.551,1.551,0,0,0,0-.357c0-.878,0-.905.878-.905.329,0,.412-.11.412-.412,0-2.277-.027-4.554,0-6.8,0-.494-.247-.494-.549-.439-.576.082-.741-.137-.713-.686.055-1.043,0-1.043,1.043-1.043h2.963c.329,0,.466.082.411.412v.3c0,.933,0,.933-.933,1.015-.3.027-.329.137-.329.384v6.941c0,.3.082.384.384.384.905.027.905.027.905.96v.439c.027.274-.082.357-.357.357a10.815,10.815,0,0,0-1.893-.082" transform="translate(-293.961 -278.795)" fill="#22375e"/>
    <path id="Path_2093" data-name="Path 2093" d="M747.411,400.556h-1.866c-.274,0-.384-.055-.357-.357a1.113,1.113,0,0,0,0-.3c0-.988,0-1.015.96-1.07.3-.027.329-.137.329-.384V391.5c0-.384-.165-.384-.439-.384-.8,0-.8-.027-.8-.823a2.344,2.344,0,0,0,0-.439c-.055-.384.11-.494.494-.466q1.728.041,3.457,0c.329,0,.494.082.466.439a1.794,1.794,0,0,0,0,.384c0,.878,0,.905-.878.933-.3,0-.357.11-.357.412,0,2.277.027,4.582,0,6.859,0,.466.247.466.521.412.576-.082.823.082.768.741-.082.988-.027,1.015-.988,1.015h-1.317Z" transform="translate(-535.022 -278.639)" fill="#22375e"/>
    <path id="Path_2094" data-name="Path 2094" d="M687.311,400.566h-1.866c-.274,0-.384-.082-.357-.357v-.3c0-.988,0-.988.96-1.07.247-.027.329-.082.329-.329v-7.051c0-.384-.219-.3-.439-.3-.8-.027-.8-.027-.8-.851a2.965,2.965,0,0,0,0-.494c-.027-.329.11-.412.411-.412q1.77.041,3.539,0c.3,0,.466.082.411.412v.3c0,.933,0,.96-.933,1.015-.3.027-.329.137-.329.384v6.941c0,.384.165.384.439.384.85,0,.85.027.85.823,0,.905,0,.905-.905.905Z" transform="translate(-491.41 -278.65)" fill="#22375e"/>
    <path id="Path_2095" data-name="Path 2095" d="M735.157,97.429a16.984,16.984,0,0,1,3.923,1.646,11.775,11.775,0,0,1,5.844,10.343,12.966,12.966,0,0,1-1.838,7.27,12.328,12.328,0,0,1-8.56,5.569,23.012,23.012,0,0,1-4.554.357H715.486c-.549,0-.686-.137-.686-.686q.041-22.058,0-44.115c0-.576.165-.713.713-.713,4.637.027,9.3-.027,13.937.055a12.473,12.473,0,0,1,8.093,2.8,9.656,9.656,0,0,1,3.4,6.667,11.706,11.706,0,0,1-.411,4.774,9.3,9.3,0,0,1-4.829,5.679c-.192.082-.439.11-.549.357M716.94,109.638c0,3.429.027,6.859-.027,10.288,0,.576.11.768.741.768,4.307-.027,8.642-.027,12.949,0a18.115,18.115,0,0,0,3.21-.274A10.542,10.542,0,0,0,741.055,116a11.333,11.333,0,0,0,1.7-7.023,10.081,10.081,0,0,0-2.908-6.968,11.489,11.489,0,0,0-8.148-3.237c-4.746-.11-9.492-.027-14.239-.055-.494,0-.521.219-.521.6v10.316m0-21.756c0,2.716.027,5.46,0,8.176,0,.549.137.686.686.686,4.115-.027,8.231-.027,12.318,0a15.931,15.931,0,0,0,1.975-.137,7.516,7.516,0,0,0,6.667-6.091,11.1,11.1,0,0,0,.192-3.923,7.789,7.789,0,0,0-3.347-5.734,11.611,11.611,0,0,0-6.639-1.811c-3.7-.055-7.435,0-11.139-.027-.576,0-.686.192-.658.713-.055,2.716-.055,5.432-.055,8.148" transform="translate(-512.973 -52.029)" fill="#5e80b8"/>
    <path id="Path_2096" data-name="Path 2096" d="M988.276,174.981c-2.963,0-5.9.027-8.861,0-.549,0-.631.165-.6.658a8.692,8.692,0,0,0,8.121,8.285,9.854,9.854,0,0,0,6.392-1.4,7.334,7.334,0,0,0,1.756-1.564c.247-.329.439-.412.768-.082,1.015.96,1.042.933,0,1.948a10.256,10.256,0,0,1-5.6,2.716,12.017,12.017,0,0,1-7.819-1.07c-4.225-2.332-5.926-6.036-5.761-10.755a10.888,10.888,0,0,1,8.2-10.014c5.624-1.262,10.864,1.481,12.483,7.627a27.181,27.181,0,0,1,.494,2.99c.055.494-.082.686-.631.686-2.963-.027-5.953-.027-8.944-.027m-.988-1.756h8.038c.192,0,.439.082.384-.3-.494-3.731-2.634-7.133-7-7.682a8.507,8.507,0,0,0-9.794,7.243c-.11.713-.11.713.6.713,2.606.027,5.185.027,7.764.027" transform="translate(-702.992 -114.656)" fill="#5e80b8"/>
    <path id="Path_2097" data-name="Path 2097" d="M903.459,183a9.1,9.1,0,0,1-4.774,3.649,10.04,10.04,0,0,1-6.283.027c-2.99-.933-4.472-3.128-4.966-6.118a15.1,15.1,0,0,1-.137-2.222V166.013c0-.494.055-.713.658-.713,1.344.055,1.344,0,1.344,1.372v10.974a13.277,13.277,0,0,0,.274,3.128,5.1,5.1,0,0,0,4.746,4.417,7.535,7.535,0,0,0,9.136-7.9c0-3.759,0-7.517-.027-11.276,0-.549.165-.686.686-.686,1.372.027,1.372,0,1.372,1.4v19.2c0,.576-.137.741-.713.713-1.344-.027-1.344,0-1.344-1.372l.027-2.277Z" transform="translate(-638.148 -116.031)" fill="#5e80b8"/>
    <path id="Path_2098" data-name="Path 2098" d="M852.766,93.658v23.1c0,.521-.11.713-.686.686-1.4-.027-1.4,0-1.4-1.427V70.805c0-.96-.137-.823.8-.823,1.262,0,1.262,0,1.262,1.262l.027,22.414Z" transform="translate(-611.57 -46.859)" fill="#5e80b8"/>
    <path id="Path_2099" data-name="Path 2099" d="M88.727,166.8V156.4c0-.439.082-.6.576-.6,4.444.027,8.889-.027,13.306.027a13.859,13.859,0,0,1,7,1.728,9.449,9.449,0,0,1,4.554,5.981,12.681,12.681,0,0,1-.247,7.49c-1.289,3.676-4.06,5.624-7.737,6.475a17.653,17.653,0,0,1-3.978.412c-4.252,0-8.5-.027-12.757.027-.631,0-.741-.192-.741-.768.027-3.457.027-6.914.027-10.37" transform="translate(-58.644 -109.138)" fill="#5e80b8"/>
    <path id="Path_2100" data-name="Path 2100" d="M88.727,93.116V84.8c0-.466.11-.6.576-.6,3.951.027,7.9,0,11.824.027a11.364,11.364,0,0,1,5.185,1.235,7.676,7.676,0,0,1,4.115,5.487,11.271,11.271,0,0,1-.192,5.322,7.575,7.575,0,0,1-6.667,5.569c-.85.082-1.674.137-2.524.137H89.468c-.576,0-.768-.11-.768-.741.055-2.661.027-5.377.027-8.121" transform="translate(-58.644 -57.181)" fill="#5e80b8"/>
    <path id="Path_2101" data-name="Path 2101" d="M270.961,205.4a13.436,13.436,0,0,1-.165,2.963,5.439,5.439,0,0,1-4.033,4.033,10.034,10.034,0,0,1-6.091-.027,4.392,4.392,0,0,1-3.292-4.829c.082-2.03,1.454-3.512,3.759-4.088a12.134,12.134,0,0,1,3.128-.329c2.03-.027,4.088,0,6.118-.027.466,0,.631.137.6.6-.055.521-.027,1.125-.027,1.7" transform="translate(-181.041 -143.461)" fill="#5e80b8"/>
    <path id="Path_2102" data-name="Path 2102" d="M534.424,202.982h3.155c.247,0,.549-.055.521.329a25.771,25.771,0,0,1-.165,4.829c-.494,2.387-2.167,3.676-4.417,4.28a9.417,9.417,0,0,1-6.639-.521,4.15,4.15,0,0,1-2.387-4.2,4.047,4.047,0,0,1,2.469-3.868,11.138,11.138,0,0,1,4.527-.823c.988-.055,1.975-.027,2.936-.027" transform="translate(-374.874 -143.37)" fill="#5e80b8"/>
  </g>
</svg>
