<svg id="bocados" xmlns="http://www.w3.org/2000/svg" width="287.089" height="69.8" viewBox="0 0 287.089 69.8">
  <g id="Group_850" data-name="Group 850" transform="translate(0 0)">
    <path id="Path_2103" data-name="Path 2103" d="M.043,1.829V1.4h10.8a39.22,39.22,0,0,1,6.688.386,11.4,11.4,0,0,1,3.773,1.5A9.286,9.286,0,0,1,24.4,6.5a9,9,0,0,1,1.286,4.759c0,3.516-1.715,6.3-5.188,8.318a10.554,10.554,0,0,1,6.774,3.687,11.435,11.435,0,0,1,2.272,7.16,13.187,13.187,0,0,1-1.972,7.117,10.081,10.081,0,0,1-4.459,4.287A19.147,19.147,0,0,1,16.035,42.9H0v-.429q1.929,0,2.444-.772c.343-.514.557-1.8.557-3.944V6.5a24.171,24.171,0,0,0-.129-3.087,1.58,1.58,0,0,0-.857-1.158A3.642,3.642,0,0,0,.043,1.829ZM7.76,2.3V20.522H12.82c3.43,0,5.7-.986,6.817-2.915a11.752,11.752,0,0,0,1.672-5.831,9.854,9.854,0,0,0-1.286-5.231A8.116,8.116,0,0,0,16.25,3.372,19.159,19.159,0,0,0,8.918,2.3ZM11.019,21.38H7.76V34.542A19.493,19.493,0,0,0,7.975,38.1a4.588,4.588,0,0,0,.943,1.715,5.349,5.349,0,0,0,2.4,1.458,15.441,15.441,0,0,0,4.8.557c3.216,0,5.531-.729,6.86-2.229S25,35.914,25,32.956a14.066,14.066,0,0,0-1.758-7.417,7.089,7.089,0,0,0-4.03-3.473A31.941,31.941,0,0,0,11.019,21.38Z" transform="translate(0 -0.8)" fill="#b12028"/>
    <path id="Path_2104" data-name="Path 2104" d="M101.681,0c5.831,0,10.59,1.758,14.277,5.316a17.669,17.669,0,0,1,5.531,13.248,24.374,24.374,0,0,1-6.431,17.193c-4.287,4.673-9.947,6.989-17.064,6.989A18.974,18.974,0,0,1,78.4,23.624a25.581,25.581,0,0,1,2.658-10.933,22.114,22.114,0,0,1,7.975-9.132A22.346,22.346,0,0,1,101.681,0Zm-.171,40.559a17.188,17.188,0,0,0,8.446-2.315,16.971,16.971,0,0,0,6.56-6.345,16.15,16.15,0,0,0,2.4-8.275A19.7,19.7,0,0,0,115.7,12.648a22.567,22.567,0,0,0-8.361-7.717,20.37,20.37,0,0,0-9.518-2.787,16.11,16.11,0,0,0-11.19,4.63,15.073,15.073,0,0,0-5.016,11.533,22.177,22.177,0,0,0,6.131,15.478C91.82,38.33,96.407,40.559,101.509,40.559Z" transform="translate(-44.786 0)" fill="#b12028"/>
    <path id="Path_2105" data-name="Path 2105" d="M225.286,2.815l1.544,4.416H226.4a19.528,19.528,0,0,0-14.192-6c-5.659,0-10.2,1.672-13.677,5.059A16.342,16.342,0,0,0,193.3,18.507a27.6,27.6,0,0,0,2.315,10.161,21.44,21.44,0,0,0,7.332,9.432,19.707,19.707,0,0,0,12.134,3.687,29.174,29.174,0,0,0,9.175-1.5,14.822,14.822,0,0,0,6.688-4.03l.386.129-2.915,4.459q-7.074,1.543-9.132,1.8a46.9,46.9,0,0,1-5.617.3q-13.055,0-18.651-6.045A20.531,20.531,0,0,1,189.4,22.452a22.29,22.29,0,0,1,2.873-10.933,20.875,20.875,0,0,1,8.318-8.275,27.466,27.466,0,0,1,18.479-2.4,29.71,29.71,0,0,1,4.245,1.329l1.844.686C225.2,2.772,225.243,2.815,225.286,2.815Z" transform="translate(-108.195 -0.114)" fill="#b12028"/>
    <path id="Path_2106" data-name="Path 2106" d="M313.881,23.024H301.7l-6.3,15.649a8.526,8.526,0,0,0-.643,2.1c0,.6.472.943,1.372.943v.429H290v-.429a3.778,3.778,0,0,0,2.1-.6,7.289,7.289,0,0,0,1.844-3.13L308.951,0h.729l14.792,36.658a16.3,16.3,0,0,0,1.158,2.658,3.728,3.728,0,0,0,3.473,2.4v.429h-9.69v-.429c.9,0,1.329-.343,1.329-1.029a7.152,7.152,0,0,0-.643-2.272,1.542,1.542,0,0,1-.214-.386c-.043-.172-.086-.3-.086-.3Zm-11.791-1.158h11.233L307.707,7.717Z" transform="translate(-165.663 0)" fill="#b12028"/>
    <path id="Path_2107" data-name="Path 2107" d="M388.1,1.829V1.4h19.036a45.308,45.308,0,0,1,11.49,1.158,20.578,20.578,0,0,1,7.332,3.6,17.528,17.528,0,0,1,4.973,6.26,19.762,19.762,0,0,1,1.844,8.532,22.51,22.51,0,0,1-1.887,8.918,23.448,23.448,0,0,1-5.188,7.546,17.733,17.733,0,0,1-6.9,4.33q-3.6,1.158-11.19,1.158H388.1v-.429h.515a1.968,1.968,0,0,0,2.015-1.243,14.531,14.531,0,0,0,.472-4.416V6.631c0-2.272-.171-3.6-.557-4.073A3.256,3.256,0,0,0,388.1,1.829Zm14.149.472H395.9V34.5a7.94,7.94,0,0,0,1.029,4.5,5.845,5.845,0,0,0,3.516,2.144,27.669,27.669,0,0,0,6.688.643c7.76,0,13.248-2.015,16.378-6a20.774,20.774,0,0,0,4.716-13.077A19.13,19.13,0,0,0,421.757,8.3C417.426,4.315,410.909,2.3,402.249,2.3Z" transform="translate(-221.703 -0.8)" fill="#b12028"/>
    <path id="Path_2108" data-name="Path 2108" d="M525.181,0c5.831,0,10.59,1.758,14.277,5.316a17.669,17.669,0,0,1,5.531,13.248,24.374,24.374,0,0,1-6.431,17.193c-4.288,4.673-9.947,6.989-17.064,6.989A18.974,18.974,0,0,1,501.9,23.624a25.581,25.581,0,0,1,2.658-10.933,22.113,22.113,0,0,1,7.975-9.132A22.346,22.346,0,0,1,525.181,0Zm-.171,40.559a17.188,17.188,0,0,0,8.446-2.315,16.971,16.971,0,0,0,6.56-6.345,16.15,16.15,0,0,0,2.4-8.275A19.7,19.7,0,0,0,539.2,12.648a22.567,22.567,0,0,0-8.361-7.717,20.37,20.37,0,0,0-9.518-2.787,16.11,16.11,0,0,0-11.19,4.63,15.073,15.073,0,0,0-5.016,11.533,22.177,22.177,0,0,0,6.131,15.478C515.32,38.33,519.907,40.559,525.01,40.559Z" transform="translate(-286.712 0)" fill="#b12028"/>
    <path id="Path_2109" data-name="Path 2109" d="M632.123,1.158l1.972,5.188-.343.043-1.543-1.672a11.486,11.486,0,0,0-3.559-2.53,11.025,11.025,0,0,0-4.545-.9,9.141,9.141,0,0,0-6.731,2.444A7.91,7.91,0,0,0,614.887,9.6a7.022,7.022,0,0,0,1.158,3.987c.772,1.158,2.4,2.187,4.888,3.173,4.245,1.458,7.16,2.53,8.746,3.258a13.074,13.074,0,0,1,4.545,3.687,9.93,9.93,0,0,1,2.187,6.646,13.209,13.209,0,0,1-.386,3.216,10.01,10.01,0,0,1-1.286,2.958,13.449,13.449,0,0,1-2.1,2.572,9.141,9.141,0,0,1-2.487,1.758,13.1,13.1,0,0,1-3.987.9c-1.8.214-3.044.3-3.6.3H611.5v-12h.429q.064,5.981,2.83,8.361c1.844,1.586,4.716,2.358,8.575,2.358,3.516,0,6.217-.815,8.06-2.487a7.853,7.853,0,0,0,2.744-6.045,6.591,6.591,0,0,0-.943-3.644,9.79,9.79,0,0,0-2.658-2.658,32.455,32.455,0,0,0-6.517-2.787,35.827,35.827,0,0,1-6.688-2.915,9.419,9.419,0,0,1-3.216-3.773,11.151,11.151,0,0,1-1.286-5.145,10.862,10.862,0,0,1,3.3-8.06A11.773,11.773,0,0,1,624.834,0a25.132,25.132,0,0,1,4.5.472,20.1,20.1,0,0,1,2.7.6C631.994,1.158,632.037,1.158,632.123,1.158Z" transform="translate(-349.321 0)" fill="#b12028"/>
  </g>
  <g id="Group_851" data-name="Group 851" transform="translate(53.465 55.223)">
    <path id="Path_2110" data-name="Path 2110" d="M125.515,140.719a6.438,6.438,0,0,0,4.245,1.372c2.744,0,3.944-1.029,3.944-2.615,0-1.543-1.2-2.229-4.03-3-3.087-.9-4.845-1.8-4.845-3.987,0-2.358,2.015-3.687,5.059-3.687,3.344,0,4.8,1.286,4.8,1.286l-.729,1.072a6.98,6.98,0,0,0-4.116-1.115c-2.1,0-3.73.815-3.73,2.444,0,1.372,1.243,1.929,4.03,2.744,3.344.943,4.845,2.058,4.845,4.245s-1.586,3.859-5.274,3.859a7.411,7.411,0,0,1-5.016-1.586Z" transform="translate(-124.7 -128.8)" fill="#5a5a59"/>
    <path id="Path_2111" data-name="Path 2111" d="M160.8,129.6h11.233v1.243H167.06v12.648h-1.286V130.8H160.8v-1.2Z" transform="translate(-145.322 -129.257)" fill="#5a5a59"/>
    <path id="Path_2112" data-name="Path 2112" d="M210.447,137.332h-7.717v5.016h8.746v1.243H201.4V129.7h10.076v1.243h-8.746v5.231h7.717Z" transform="translate(-168.515 -129.314)" fill="#5a5a59"/>
    <path id="Path_2113" data-name="Path 2113" d="M242.774,129.6h.343l6.774,13.891h-1.5l-1.329-2.658H238.83l-1.329,2.658H236Zm.257,2.658h-.172l-3.258,7.074-.129.257h6.989l-.129-.257Z" transform="translate(-188.28 -129.257)" fill="#5a5a59"/>
    <path id="Path_2114" data-name="Path 2114" d="M283.472,137.618l8.189-8.018H293.2v.257l-5.617,5.488,5.617,7.889v.257h-1.5l-5.145-7.16-3.13,3.087v4.073H282.1V129.6h1.329v8.018Z" transform="translate(-214.615 -129.257)" fill="#5a5a59"/>
  </g>
  <g id="Group_852" data-name="Group 852" transform="translate(147.06 55.223)">
    <path id="Path_2115" data-name="Path 2115" d="M354.4,143.491h-1.329v-6.217h-8.789v6.217H343V129.6h1.329v6.431h8.746V129.6H354.4Z" transform="translate(-343 -129.257)" fill="#9a9a9a"/>
    <path id="Path_2116" data-name="Path 2116" d="M385.6,136.089a7.161,7.161,0,1,1,7.16,7.246A6.921,6.921,0,0,1,385.6,136.089Zm12.991,0a5.833,5.833,0,1,0-5.831,6A5.705,5.705,0,0,0,398.591,136.089Z" transform="translate(-367.335 -128.8)" fill="#9a9a9a"/>
    <path id="Path_2117" data-name="Path 2117" d="M434.5,137.7v-8.1h1.329v8.1c0,2.873,1.5,4.888,4.416,4.888,2.958,0,4.459-2.015,4.459-4.888v-8.1h1.286v8.1c0,3.644-2.058,6.131-5.745,6.131C436.6,143.834,434.5,141.348,434.5,137.7Z" transform="translate(-395.27 -129.257)" fill="#9a9a9a"/>
    <path id="Path_2118" data-name="Path 2118" d="M477.515,140.719a6.438,6.438,0,0,0,4.245,1.372c2.744,0,3.944-1.029,3.944-2.615,0-1.543-1.2-2.229-4.03-3-3.087-.9-4.845-1.8-4.845-3.987,0-2.358,1.972-3.687,5.059-3.687,3.344,0,4.8,1.286,4.8,1.286l-.729,1.072a6.98,6.98,0,0,0-4.116-1.115c-2.1,0-3.73.815-3.73,2.444,0,1.372,1.243,1.929,4.03,2.744,3.344.943,4.845,2.058,4.845,4.245s-1.586,3.859-5.274,3.859a7.411,7.411,0,0,1-5.016-1.586Z" transform="translate(-419.377 -128.8)" fill="#9a9a9a"/>
    <path id="Path_2119" data-name="Path 2119" d="M525.647,137.332h-7.717v5.016h8.746v1.243H516.6V129.7h10.076v1.243h-8.746v5.231h7.717Z" transform="translate(-442.17 -129.314)" fill="#9a9a9a"/>
  </g>
</svg>
