<svg id="dao" xmlns="http://www.w3.org/2000/svg" width="246.445" height="109.34" viewBox="0 0 246.445 109.34">
  <g id="Group_858" data-name="Group 858">
    <g id="Group_857" data-name="Group 857">
      <path id="Path_2143" data-name="Path 2143" d="M80.521,0H9.43V10H75.523V44.744c0,14.282-16.748,24.235-31.782,24.235-9.615,0-14.672-3.005-18.705-6.255l-6.271,7.787C23.964,74.7,31,78.98,43.745,78.98c20.178,0,41.782-13.758,41.782-34.236V5a5.008,5.008,0,0,0-5.006-5" transform="translate(-5.716)" fill="#b12028"/>
      <path id="Path_2144" data-name="Path 2144" d="M25.735,46.95h-10c0,3.391-5.349,11.623-9.095,13.041l3.533,9.355c8.015-3.029,15.562-15.184,15.562-22.4" transform="translate(-4.025 -28.457)" fill="#b12028"/>
      <path id="Path_2145" data-name="Path 2145" d="M28.544,66.22c7.373-10.867,11.777-22.16,11.777-30.21h-10C30.325,48.39,13.766,74.35,0,79.549L3.533,88.9c8.216-3.1,17.335-11.367,25.011-22.683" transform="translate(0 -21.826)" fill="#b12028"/>
      <path id="Path_2146" data-name="Path 2146" d="M221.37,10h11.025V30H221.37V40h11.025v1.662c0,27.319-7.444,27.319-11.025,27.319v10c21.025,0,21.025-27.111,21.025-37.32V40h34.169v1.662c0,10.205,0,37.32,21.025,37.32v-10c-3.576,0-11.025,0-11.025-27.319V40h11.025V30H286.565V10h11.025V0H221.374V10Zm55.194,20H242.4V10h34.169Z" transform="translate(-134.177)" fill="#b12028"/>
      <path id="Path_2147" data-name="Path 2147" d="M508.9,0H446.258a5,5,0,0,0-5,5V78.98h10v-10H503.9v10h10V5a5,5,0,0,0-5-5M451.257,10H503.9V58.983H451.257Z" transform="translate(-267.458)" fill="#b12028"/>
    </g>
  </g>
  <g id="Group_859" data-name="Group 859" transform="translate(7.48 91.001)">
    <path id="Path_2148" data-name="Path 2148" d="M30.1,245.746a6.006,6.006,0,0,1-4.435,1.642,6.684,6.684,0,0,1,0-13.368,6.006,6.006,0,0,1,4.435,1.642l-.855,1.15a5.262,5.262,0,0,0-3.561-1.386,5.279,5.279,0,0,0,0,10.556,5.262,5.262,0,0,0,3.561-1.386Z" transform="translate(-18.99 -232.846)"/>
    <path id="Path_2149" data-name="Path 2149" d="M54.39,255.75a3.771,3.771,0,0,1-4.01-3.817,4.021,4.021,0,0,1,8.039,0A3.781,3.781,0,0,1,54.39,255.75Zm2.584-3.836a2.573,2.573,0,1,0-5.14,0,2.571,2.571,0,1,0,5.14,0Z" transform="translate(-38.016 -241.338)"/>
    <path id="Path_2150" data-name="Path 2150" d="M77.253,255.587H75.78v-7.377H76.8l.15,1.067h.087a3.023,3.023,0,0,1,2.749-1.237,3.086,3.086,0,0,1,3.285,3.348v4.2H81.6v-4.01a2.179,2.179,0,0,0-4.348-.3Z" transform="translate(-53.412 -241.344)"/>
    <path id="Path_2151" data-name="Path 2151" d="M99.053,245.058V242.84h1.473v2.218h2.879v1.193h-2.879v3.116c0,1.386.555,1.981,1.662,1.981a2.132,2.132,0,0,0,1.024-.3l.492,1.024a2.853,2.853,0,0,1-1.729.532c-1.875,0-2.923-1.087-2.923-3.2v-3.155H97.58v-1.193Z" transform="translate(-66.625 -238.192)"/>
    <path id="Path_2152" data-name="Path 2152" d="M122.012,254.925a4.276,4.276,0,0,1-2.773.855,3.814,3.814,0,0,1-4.159-3.86,3.722,3.722,0,0,1,3.86-3.88,3.45,3.45,0,0,1,3.624,3.691v.492h-6.034a2.519,2.519,0,0,0,2.73,2.344,3.826,3.826,0,0,0,2.241-.638Zm-5.42-3.793h4.522a2.181,2.181,0,0,0-2.2-1.9A2.242,2.242,0,0,0,116.592,251.132Z" transform="translate(-77.232 -241.344)"/>
    <path id="Path_2153" data-name="Path 2153" d="M146.255,255.587h-1.473v-4.266a1.938,1.938,0,0,0-2.131-2.048,2.043,2.043,0,0,0-2.218,1.879v4.435H138.96v-7.377h1.024l.15,1.067h.087a3.053,3.053,0,0,1,2.749-1.237,3.164,3.164,0,0,1,2.836,1.363h.087a3.184,3.184,0,0,1,2.923-1.363,3.068,3.068,0,0,1,3.261,3.348v4.2H150.6v-4.01a2.181,2.181,0,0,0-4.352-.3v4.305Z" transform="translate(-91.707 -241.344)"/>
    <path id="Path_2154" data-name="Path 2154" d="M179.793,254.663v5.01H178.32V248.2h1.024l.193,1.067h.13a3.278,3.278,0,0,1,2.879-1.237,3.864,3.864,0,0,1,.043,7.72c-2.131,0-2.73-1.087-2.73-1.087Zm2.474-.15a2.624,2.624,0,1,0-2.56-2.623A2.465,2.465,0,0,0,182.267,254.513Z" transform="translate(-115.564 -241.338)"/>
    <path id="Path_2155" data-name="Path 2155" d="M206.31,255.75a3.771,3.771,0,0,1-4.01-3.817,4.021,4.021,0,0,1,8.039,0A3.785,3.785,0,0,1,206.31,255.75Zm2.58-3.836a2.573,2.573,0,1,0-5.14,0,2.571,2.571,0,1,0,5.14,0Z" transform="translate(-130.098 -241.338)"/>
    <path id="Path_2156" data-name="Path 2156" d="M232,249.939a1.982,1.982,0,0,0-.981-.213,1.788,1.788,0,0,0-1.855,1.6v4.522H227.69V248.47h1.024l.15,1.067h.063a2.458,2.458,0,0,1,2.174-1.067,2.732,2.732,0,0,1,1.406.319Z" transform="translate(-145.488 -241.605)"/>
    <path id="Path_2157" data-name="Path 2157" d="M245.192,251.089a3.8,3.8,0,0,1,2.348.618h.126v-.386c0-1.3-.705-2.048-2.474-2.048a3.86,3.86,0,0,0-2.155.6l-.532-1.107a4.924,4.924,0,0,1,2.966-.725c2.6,0,3.6,1.473,3.6,3.474v4.073h-1.024l-.15-.874h-.087A3.277,3.277,0,0,1,245,255.756c-2.2,0-3.179-1.087-3.179-2.391C241.82,252.113,242.887,251.089,245.192,251.089Zm.063,3.58c1.386,0,2.367-.831,2.367-1.343,0-.725-.981-1.237-2.367-1.237-1.237,0-1.961.488-1.961,1.28C243.293,254.094,243.931,254.669,245.255,254.669Z" transform="translate(-154.052 -241.344)"/>
    <path id="Path_2158" data-name="Path 2158" d="M270.519,249.939a1.982,1.982,0,0,0-.981-.213,1.788,1.788,0,0,0-1.855,1.6v4.522H266.21V248.47h1.024l.15,1.067h.063a2.458,2.458,0,0,1,2.174-1.067,2.732,2.732,0,0,1,1.406.319Z" transform="translate(-168.836 -241.605)"/>
    <path id="Path_2159" data-name="Path 2159" d="M283.43,259.95h-1.556l2.218-4.5L280.7,248.48h1.623l2.344,5.1a1.773,1.773,0,0,1,.13.532h.087a1.76,1.76,0,0,1,.126-.532l2.324-5.1h1.513Z" transform="translate(-177.618 -241.611)"/>
    <path id="Path_2160" data-name="Path 2160" d="M327.051,245.746a6.006,6.006,0,0,1-4.435,1.642,6.684,6.684,0,0,1,0-13.368,6.006,6.006,0,0,1,4.435,1.642l-.851,1.15a5.262,5.262,0,0,0-3.561-1.386,5.279,5.279,0,0,0,0,10.556A5.262,5.262,0,0,0,326.2,244.6Z" transform="translate(-198.978 -232.846)"/>
    <path id="Path_2161" data-name="Path 2161" d="M348.6,231.04h1.469v7.57h.063a3.244,3.244,0,0,1,2.474-.874,3.086,3.086,0,0,1,3.285,3.348v4.2h-1.473v-4.01a2.187,2.187,0,0,0-4.348-.425v4.435H348.6Z" transform="translate(-218.774 -231.04)"/>
    <path id="Path_2162" data-name="Path 2162" d="M372.59,237.141a.94.94,0,0,1,.937-.961.957.957,0,0,1,.961.961.938.938,0,0,1-.961.937A.92.92,0,0,1,372.59,237.141Zm.213,3.88h1.473V248.4H372.8Z" transform="translate(-233.315 -234.155)"/>
    <path id="Path_2163" data-name="Path 2163" d="M384.519,255.587H383.05v-7.377h1.024l.15,1.067h.087a3.026,3.026,0,0,1,2.753-1.237,3.086,3.086,0,0,1,3.285,3.348v4.2h-1.473v-4.01a2.179,2.179,0,0,0-4.348-.3v4.305Z" transform="translate(-239.655 -241.344)"/>
    <path id="Path_2164" data-name="Path 2164" d="M413.262,254.925a4.276,4.276,0,0,1-2.773.855,3.814,3.814,0,0,1-4.159-3.86,3.722,3.722,0,0,1,3.86-3.88,3.453,3.453,0,0,1,3.628,3.691v.492h-6.034a2.519,2.519,0,0,0,2.73,2.344,3.826,3.826,0,0,0,2.241-.638Zm-5.416-3.793h4.522a2.178,2.178,0,0,0-2.2-1.9A2.242,2.242,0,0,0,407.846,251.132Z" transform="translate(-253.766 -241.344)"/>
    <path id="Path_2165" data-name="Path 2165" d="M429.183,253.832a5.458,5.458,0,0,0,2.706.725c1.217,0,1.918-.343,1.918-.981,0-1.536-5.077-.768-5.077-3.411,0-1.193.961-2.135,3.135-2.135a6.832,6.832,0,0,1,3.116.6l-.555,1.193a4.354,4.354,0,0,0-2.411-.6c-1.15,0-1.875.213-1.875.918,0,1.473,5.073.618,5.073,3.391,0,1.193-.961,2.218-3.328,2.218a5.263,5.263,0,0,1-3.3-.9Z" transform="translate(-267.252 -241.338)"/>
    <path id="Path_2166" data-name="Path 2166" d="M455.982,254.925a4.276,4.276,0,0,1-2.773.855,3.814,3.814,0,0,1-4.159-3.86,3.722,3.722,0,0,1,3.86-3.88,3.453,3.453,0,0,1,3.628,3.691v.492H450.5a2.519,2.519,0,0,0,2.73,2.344,3.826,3.826,0,0,0,2.241-.638Zm-5.416-3.793h4.522a2.178,2.178,0,0,0-2.2-1.9A2.242,2.242,0,0,0,450.566,251.132Z" transform="translate(-279.659 -241.344)"/>
    <path id="Path_2167" data-name="Path 2167" d="M494.7,245.746a6.006,6.006,0,0,1-4.435,1.642,6.684,6.684,0,0,1,0-13.368,6.006,6.006,0,0,1,4.435,1.642l-.851,1.15a5.262,5.262,0,0,0-3.561-1.386,5.279,5.279,0,0,0,0,10.556,5.262,5.262,0,0,0,3.561-1.386Z" transform="translate(-300.595 -232.846)"/>
    <path id="Path_2168" data-name="Path 2168" d="M521.538,248.47h1.469v7.377h-.961l-.256-1.044h-.063a3.371,3.371,0,0,1-5.967-2.131v-4.2h1.469v4.01c0,1.323.662,2.3,2.068,2.3a2.1,2.1,0,0,0,2.237-2V248.47Z" transform="translate(-320.094 -241.605)"/>
    <path id="Path_2169" data-name="Path 2169" d="M539.86,237.141a.94.94,0,0,1,.937-.961.957.957,0,0,1,.961.961.938.938,0,0,1-.961.937A.92.92,0,0,1,539.86,237.141Zm.217,3.88h1.473V248.4h-1.473Z" transform="translate(-334.701 -234.155)"/>
    <path id="Path_2170" data-name="Path 2170" d="M549.453,253.832a5.458,5.458,0,0,0,2.706.725c1.217,0,1.918-.343,1.918-.981,0-1.536-5.077-.768-5.077-3.411,0-1.193.961-2.135,3.135-2.135a6.832,6.832,0,0,1,3.116.6l-.555,1.193a4.354,4.354,0,0,0-2.411-.6c-1.15,0-1.875.213-1.875.918,0,1.473,5.073.618,5.073,3.391,0,1.193-.961,2.218-3.328,2.218a5.263,5.263,0,0,1-3.3-.9Z" transform="translate(-340.15 -241.338)"/>
    <path id="Path_2171" data-name="Path 2171" d="M570.01,237.141a.94.94,0,0,1,.937-.961.957.957,0,0,1,.961.961.938.938,0,0,1-.961.937A.92.92,0,0,1,570.01,237.141Zm.217,3.88H571.7V248.4h-1.473Z" transform="translate(-352.976 -234.155)"/>
    <path id="Path_2172" data-name="Path 2172" d="M581.949,255.587H580.48v-7.377H581.5l.15,1.067h.087a3.023,3.023,0,0,1,2.749-1.237,3.086,3.086,0,0,1,3.285,3.348v4.2H586.3v-4.01a2.179,2.179,0,0,0-4.348-.3v4.305Z" transform="translate(-359.322 -241.344)"/>
    <path id="Path_2173" data-name="Path 2173" d="M610.692,254.925a4.276,4.276,0,0,1-2.773.855,3.814,3.814,0,0,1-4.159-3.86,3.722,3.722,0,0,1,3.86-3.88,3.45,3.45,0,0,1,3.624,3.691v.492h-6.034a2.519,2.519,0,0,0,2.73,2.344,3.826,3.826,0,0,0,2.241-.638Zm-5.42-3.793h4.522a2.178,2.178,0,0,0-2.2-1.9A2.242,2.242,0,0,0,605.273,251.132Z" transform="translate(-373.433 -241.344)"/>
  </g>
</svg>
