<svg id="logo-hiroshi-mousai" xmlns="http://www.w3.org/2000/svg" width="235.527" height="125.188" viewBox="0 0 235.527 125.188">
  <path id="Path_2120" data-name="Path 2120" d="M432.466,0c-.334.245-.31.621-.485.945.116.1.205.252.395.166.1-.193.4-.29.309-.552-.071.159.124.224.214.334l.364-.362c-.174,1-.986,1.776-1.166,2.818l.2.179,2.978-3.29c.04.648-.864,1.152-.49,1.673.53-.221.838-.776,1.247-1.173-.05.5-.609,1.021-.119,1.5.264-.207.388-.6.738-.614-.619,1.449-.648,3.142-1.811,4.387.264.593-.583,1.255-.852,1.9l-1.228.973.169.183c-.179,1.083-1.535.842-1.745,1.931l.211.179c-.31.855-2.285,1.2-1.188,2.476-.233,1.317-1.764,2.2-1.466,3.407l.345-.017.014.345c-.209-.334-.617-.083-.926-.1-.39,1.29-2.045,1.948-1.476,3.414l-.54.565.195.179c1.341-.8,1.721-2.314,2.583-3.473-1.292,1.756-1.411,4.449-3.018,6.1-.153.052-.238-.1-.354-.172-.522.252.185.607.224.711-.5-.2-.514.379-.733.621l.026.338c-.279-.066-.34.29-.524.41.115.072.205.262.353.172l-1.216.986c.135.221.359.172.548.162a39.171,39.171,0,0,1-2.225,3.8c-.3.09-.738-.117-.9.238.124.221.349.169.578.159.155.793-.817,1.231-1.012,1.9-.25-.41-.5.093-.762.035-.964.707-1.107,1.7-1.7,2.7a.952.952,0,0,0,.933.324l-.683.772c.119.062.2.242.345.169-.016.39-.385.586-.485.942.24.1.209.334.224.524-.15.09-.274-.052-.4-.131-.7.345,0,.69.064,1.114l-.712.383c.748.993-1.028,1.542-.624,2.635-1.914,3.166-2.024,6.936-2.8,10.536.031,1.342-.514,2.711.055,4.063l-.174.2A13.867,13.867,0,0,1,413.939,61c.454.434.026,1.262.279,1.631-.543,2.225.045,4.8-.762,6.908A75.158,75.158,0,0,0,415.161,81.1c1.885,4.394,2.9,9.17,6.229,12.836,3.287,2.894,6.029,7.7,10.905,7.067,5.077.238,9.405-1.938,13.9-3.321a38,38,0,0,0,8.288-5.07c1.262-.141,2-1.486,3.247-1.655a12.668,12.668,0,0,1,2.857-2l-.205-.183c.878-.769,1.4-1.976,2.678-2.356.295-.9,1.281-.49,1.8-1.007-.129-.076-.209-.224-.4-.176,3.121-1.962,3.79-5.3,7.07-7.194-.148-.724.474-1.328.833-1.731.535-1.635,1.8-2.966,1.979-4.735,1.013-1.169.735-2.145,1.468-3.418-.076-1.6.922-3.035.688-4.477a12.936,12.936,0,0,1,.254-2.583,26.322,26.322,0,0,0-.812-8.315c.443-1.214-.873-2.149-1.616-3.066-2.2-2.069-5.2-1.993-6.717-4.639-1.747.324-.664-1.8-2.314-1.759-.379-1.287-1.96-.859-3.036-1.152,0-1.445-1.705-.059-2.285-.993.219-.128.169-.352.16-.542-.45-.479-.828.159-1.283.252-.184-.327-.622-.079-.936-.138-.838.076-1.711-.49-2.549.324l-.385.02c.15-1.542-1.091-1.059-1.8-2.131-2.383.614-5.066,1.411-6.277,3.846-.284,1.248-1.292,2.518-.524,3.9,1.028,2.135,3.1,4.442,5.615,4.735.026.69-.628.531-1.077.783-2.539-.866-4.442-3.673-5.146-6.219.4-1.78.693-3.521,1.218-5.273l-.195-.142c-.678.259-.643.914-1.412.993-.09-.266.21-.393.321-.593-1.99-1.242-2.28,2.028-3.975,1.89a9.18,9.18,0,0,0-1.6,4.721c1.112,2.9,3.466,6.377,6.837,7.046a1.9,1.9,0,0,1-2.981-.035,31.309,31.309,0,0,1-4.189-6.07c-.933-1.721.842-5.336-1.935-5.47-.464.528-1.059,1.024-1.023,1.707-.081-.152.069-.231.14-.355a1.844,1.844,0,0,0-1.3-.693c-1.028,2.314-1.481,5.522-.559,7.815-1.316-2.5-.438-5.656.16-8.143l-.205-.183a15.039,15.039,0,0,0-3.1,4.611c.04-1.469,1.331-3.176-.04-4.449-2,2.173-2.523,5.232-2.523,8.264a23.544,23.544,0,0,1,1.017-8.574c-.361-.21.343-.7-.055-.918a6.229,6.229,0,0,0-1.262,3.79,19.392,19.392,0,0,0-1.176,9.874c-.788-1.148-.229-2.976-.754-4.214a12.475,12.475,0,0,0-.334,4.625l-.179.2c.234.1.205.331.216.559-.914-1.486-.788-3.411-1.188-5.146a5.654,5.654,0,0,0-.259,2.424l-.334.014.016,4.1-.195-.172-.374.358c.166.338.509.083.778.152.111,2.259,1.576,3.866,3.232,5.4L425.8,61.307a2.423,2.423,0,0,0,.888,2.369l-.179.2c3.042,3.18,6.553,6.532,10.755,7.774-.607.1-1.616,1.455-2.193.648a12.665,12.665,0,0,1-4.971-3.621c-.49-.541-1.555-.266-1.566-1.217-2.135-1.235-2.359-3.37-4.114-4.777l-.179.2c1.959,5.277,7.984,9.978,13.509,10.767-.474.373.195.683.06,1.117-.629,2.025-2.424.079-3.542-.207-.643-.576-2.109-.811-1.935-1.738a25,25,0,0,1-10.241-12.05,36.6,36.6,0,0,1-.579-14.271c.314-1.328,1.178-2.442,1.5-3.766l-.938-.334c.424-.638.4-1.2,1.221-1.556-.364.286-.349.669-.528.99.214.328.538-.11.722-.231a4.434,4.434,0,0,0,.788-3.187,10.393,10.393,0,0,0,2.2-3.449l.564-.221a30.653,30.653,0,0,1-2.009,4.163c.014.231-.01.459.219.576,1.142-.99,1.307-2.949,2.789-3.132.264-.176.4-.569.7-.587a1.229,1.229,0,0,0-.469,1.328l.2.179c1.276-1.362,1.726-3.846,3.851-4.1.562-.259.333-1.086,1.071-.976.09.3-.114.731.234.91,1.049.142,1.486-1,2.354-1.235l-.728.766c.4.359.01.924-.09,1.307.6.314,1.366-.372,2.035.09,1.226-.065,1.347-1.486,2.275-2.149,1.893-.369,3.24-1.856,5.091-2.293,2.889-1.383,4.653-4.956,7.844-5.622,2.3-.728,3.864-3.076,6.339-3.466-.8.879-2.23.69-2.714,1.821.595.2,1.286-.562,2.03-.1a7.35,7.35,0,0,0-3.451,1.286c-.119-.1-.209-.248-.359-.179.179,1.3-1.616.476-1.407,1.728-.612-.083-.728.766-1.266.835,1.137,1.169,1.9-.562,3.161.179.814-.541,1.945-.328,2.544-1.245l-.2-.138a3.8,3.8,0,0,0,3.654-1.152c5.116.969,10.967-.1,15.684,1.994a14.1,14.1,0,0,1,4.873,1.6l-.126.576c.379-.017,1.028.755,1.257-.059,3.8,3.063,7.575,6.274,8.917,10.812.936,1.1,2.752.617,3.245,2.052.234,5.284,6.8,7.512,6.434,13.013l.084,9.281-2.074,10.3c.15.645-.184,1.58.48,2.011.957-.207,1.165-1.286,1.745-1.931l.19-.011c-1.407,2.335-1.887,5-2.754,7.543l.21.183a4.052,4.052,0,0,1,1.242-.983c.09.145-.095.235-.166.348l.4.362c-1.861,2.631-2.549,5.618-4.02,8.336-2.847,3.608-4.818,7.691-7.984,10.992l.195.19c-1.217.176-2.04,1.29-3.037,2a47.354,47.354,0,0,0-7.979,6.535c-5.337,2.314-10.185,5.625-15.12,8.719-1.238-.166-1.705,1.276-2.944,1.073-.707.417-1.021,1.669-2.159,1.224-.19.772-1.028.866-1.585,1.193l-.405-.324c-3.654,1.948-7.784,2.938-11.823,4.135-2.275-.8-4.618,1.241-7.012.169a39.032,39.032,0,0,1-5.551.1c-1.176.362-1.929-1.745-3.016-.424-7.093-2.2-14.811-4.608-19.977-10.436-.319-.98-1.581-1.642-2.156-2.3-1.36-1.893-1.566-4.335-3.445-5.925-1.54-3.256-3.62-6.26-4.613-9.767-1-1.683-1.635-3.528-2.493-5.246.44-.555-.04-1.6-.449-2.2-.483-.4-1.157-.942-.469-1.476l-1.45-6.6c-.14.086-.266-.1-.395-.169.809-.852-.079-1.835-.135-2.752-.153-.069-.224.09-.334.166-.1-.6.081-1.342-.279-1.821l.176-.2a30.2,30.2,0,0,1-.833-8.667l-.195-.179c.01-4.1.578-8.043.862-12.081-.2-.956.44-2.062.385-3.163l.174-.2a6.854,6.854,0,0,1,.619-2.255,19.163,19.163,0,0,1,.8-3l-.2-.179q1.495-3.59,2.961-7.17a8.064,8.064,0,0,1,.809-2.269,37.615,37.615,0,0,1,2.343-5.142c-.588-.355.23-.928-.253-1.29l-1.642.852c1.157-2.825,4.114-4.963,6.115-6.987-.121-.111-.2-.259-.35-.169,2.494-1.517,4.459-4.225,6.688-6.287A250.749,250.749,0,0,1,432.311.01Z" transform="translate(-274.524)" fill="#c6c6c6"/>
  <g id="Group_854" data-name="Group 854" transform="translate(0 49.15)">
    <path id="Path_2121" data-name="Path 2121" d="M23.8,167.893v36.22a.548.548,0,0,1-.512.514.522.522,0,0,1-.524-.514V186.5H1.041v17.617a.553.553,0,0,1-.514.514A.526.526,0,0,1,0,204.114v-36.22a.5.5,0,0,1,.528-.521.516.516,0,0,1,.514.521v17.565H22.764V167.893a.493.493,0,0,1,.524-.521A.513.513,0,0,1,23.8,167.893Z" transform="translate(0 -166.693)"/>
    <path id="Path_2122" data-name="Path 2122" d="M149.8,204.114v-36.22a.516.516,0,1,1,1.031,0v36.22a.516.516,0,0,1-1.031,0Z" transform="translate(-105.201 -166.693)"/>
    <path id="Path_2123" data-name="Path 2123" d="M223.076,167.893a.473.473,0,0,1,.524-.521h12.112c6.394,0,10.185,3.635,10.185,9.557,0,5.563-3.382,9.567-10.185,9.567a1.557,1.557,0,0,0-1.616,1.614,1.73,1.73,0,0,0,.361,1.031l12.062,14.61a.5.5,0,0,1-.314.876.542.542,0,0,1-.459-.2l-12.064-14.606a2.443,2.443,0,0,1-.623-1.707,2.535,2.535,0,0,1,2.652-2.652c5.925,0,9.091-3.176,9.091-8.529s-3.271-8.515-9.15-8.515h-11.43a.114.114,0,0,0-.11.1v35.541a.521.521,0,1,1-1.038,0Z" transform="translate(-156.663 -166.693)"/>
    <path id="Path_2124" data-name="Path 2124" d="M369.389,165.09c8.467,0,12.837,6.911,12.837,19.279,0,11.33-5.256,19.334-14.028,19.334-8.324,0-12.792-6.653-12.792-19.279C355.405,173.1,360.6,165.09,369.389,165.09Z" transform="translate(-249.596 -165.09)" fill="#ff671d"/>
    <path id="Path_2125" data-name="Path 2125" d="M496.907,197.834a.616.616,0,0,1,.474.2,12.685,12.685,0,0,0,10.074,4.622c6.5,0,10.5-3.787,10.5-8.522,0-4.777-3.535-7.163-9.874-9.036-7.011-2.079-10.348-5.36-10.348-11.019,0-5.091,4.006-8.991,10.707-8.991A13.49,13.49,0,0,1,517.009,168a.528.528,0,1,1-.717.773,12.7,12.7,0,0,0-7.855-2.646c-6.282,0-9.659,3.49-9.659,8.167,0,4.98,3.221,7.95,9.609,9.815,6.548,1.925,10.607,4.522,10.607,10.026,0,5.353-4.468,9.567-11.538,9.567a13.316,13.316,0,0,1-10.912-5.049A.5.5,0,0,1,496.907,197.834Z" transform="translate(-348.635 -165.09)"/>
    <path id="Path_2126" data-name="Path 2126" d="M661.653,167.893v36.22a.558.558,0,0,1-.522.514.518.518,0,0,1-.519-.514V186.5H638.889v17.617a.551.551,0,0,1-.528.514.515.515,0,0,1-.509-.514v-36.22a.486.486,0,0,1,.509-.521.516.516,0,0,1,.528.521v17.565h21.723V167.893a.49.49,0,0,1,.519-.521A.521.521,0,0,1,661.653,167.893Z" transform="translate(-447.955 -166.693)"/>
    <path id="Path_2127" data-name="Path 2127" d="M787.617,204.114v-36.22a.521.521,0,0,1,1.042,0v36.22a.521.521,0,0,1-1.042,0Z" transform="translate(-553.132 -166.693)"/>
  </g>
  <g id="Group_855" data-name="Group 855" transform="translate(19.716 105.276)">
    <path id="Path_2128" data-name="Path 2128" d="M68.782,354.156a.24.24,0,0,0-.249.261v6.335a.266.266,0,0,1-.032.135l-2.238,3.847a.25.25,0,0,0-.011.246.234.234,0,0,0,.217.131.251.251,0,0,0,.221-.124l2.238-3.845a.73.73,0,0,0,.1-.388v-6.337A.24.24,0,0,0,68.782,354.156Z" transform="translate(-66.225 -353.995)"/>
    <path id="Path_2129" data-name="Path 2129" d="M104.559,354.156a.7.7,0,0,0-.71.5l-2.959,8.3a.252.252,0,0,0,.023.233.241.241,0,0,0,.208.09.258.258,0,0,0,.242-.169l1.021-2.863h4.353l1.026,2.868a.241.241,0,0,0,.224.163.258.258,0,0,0,.225-.1.253.253,0,0,0,.014-.242l-2.957-8.278A.7.7,0,0,0,104.559,354.156Zm0,.5a.225.225,0,0,1,.242.178l1.758,4.918h-4l1.755-4.922A.227.227,0,0,1,104.559,354.653Zm-3.314,8.414Z" transform="translate(-90.557 -353.995)"/>
    <path id="Path_2130" data-name="Path 2130" d="M153.762,354.156h-2.9a.233.233,0,0,0-.249.248v8.625a.249.249,0,1,0,.5,0v-8.376h2.622a2.159,2.159,0,0,1,1.523.5,1.816,1.816,0,0,1,.529,1.407,1.85,1.85,0,0,1-.523,1.413,2.174,2.174,0,0,1-1.53.491H153.3a.24.24,0,0,0-.261.249.237.237,0,0,0,.261.248h.458a2.564,2.564,0,0,0,1.856-.648,2.624,2.624,0,0,0-.007-3.508A2.57,2.57,0,0,0,153.762,354.156Z" transform="translate(-125.493 -353.995)"/>
    <path id="Path_2131" data-name="Path 2131" d="M193.253,354.156a.7.7,0,0,0-.71.5l-2.959,8.3a.252.252,0,0,0,.023.233.241.241,0,0,0,.208.09.258.258,0,0,0,.242-.169l1.021-2.863h4.353l1.026,2.868a.241.241,0,0,0,.224.163.258.258,0,0,0,.225-.1.253.253,0,0,0,.014-.242l-2.957-8.278A.7.7,0,0,0,193.253,354.156Zm0,.5a.225.225,0,0,1,.242.178l1.758,4.918h-4l1.755-4.922A.227.227,0,0,1,193.253,354.653Zm-3.314,8.414Z" transform="translate(-152.846 -353.995)"/>
    <path id="Path_2132" data-name="Path 2132" d="M245.575,354.156a.233.233,0,0,0-.249.248v8.118a.263.263,0,0,1-.5.118l-4.084-8.07a.759.759,0,0,0-1.434.342v8.117a.249.249,0,1,0,.5,0v-8.117a.253.253,0,0,1,.259-.259.241.241,0,0,1,.235.142l4.082,8.064a.7.7,0,0,0,.682.418.758.758,0,0,0,.756-.756V354.4A.232.232,0,0,0,245.575,354.156Z" transform="translate(-187.781 -353.995)"/>
    <path id="Path_2133" data-name="Path 2133" d="M294.447,354.653a.249.249,0,1,0,0-.5h-4.764a.233.233,0,0,0-.249.248v8.625a.234.234,0,0,0,.249.249h4.764a.249.249,0,1,0,0-.5h-4.515v-3.822h3.476a.237.237,0,0,0,.261-.248.24.24,0,0,0-.261-.249h-3.476v-3.809Z" transform="translate(-222.982 -353.995)"/>
    <path id="Path_2134" data-name="Path 2134" d="M334.407,358.148a3.839,3.839,0,0,1-1.672-.865,1.837,1.837,0,0,1-.526-1.353,1.652,1.652,0,0,1,.564-1.311,2.356,2.356,0,0,1,1.613-.507,2.972,2.972,0,0,1,1.064.187,2.231,2.231,0,0,1,.725.4.248.248,0,0,0,.351,0,.215.215,0,0,0,.076-.172.231.231,0,0,0-.1-.17,2.787,2.787,0,0,0-.836-.492,3.224,3.224,0,0,0-1.282-.26,2.845,2.845,0,0,0-1.945.638,2.088,2.088,0,0,0-.729,1.628,2.4,2.4,0,0,0,.628,1.713,4.276,4.276,0,0,0,1.923,1.029,4.908,4.908,0,0,1,1.731.824,1.5,1.5,0,0,1,.531,1.21,1.693,1.693,0,0,1-.637,1.353,2.593,2.593,0,0,1-1.737.551,3.143,3.143,0,0,1-1.291-.273,2.671,2.671,0,0,1-1.021-.791.254.254,0,0,0-.419.064.227.227,0,0,0,.038.254,3.207,3.207,0,0,0,1.082.883,3.439,3.439,0,0,0,1.611.361,3.078,3.078,0,0,0,2.073-.68,2.187,2.187,0,0,0,.8-1.721,1.973,1.973,0,0,0-.674-1.566A5.281,5.281,0,0,0,334.407,358.148Z" transform="translate(-252.452 -353.615)"/>
    <path id="Path_2135" data-name="Path 2135" d="M382.477,354.653a.249.249,0,1,0,0-.5h-4.764a.233.233,0,0,0-.249.248v8.625a.234.234,0,0,0,.249.249h4.764a.249.249,0,1,0,0-.5h-4.515v-3.822h3.476a.237.237,0,0,0,.261-.248.24.24,0,0,0-.261-.249h-3.476v-3.809Z" transform="translate(-284.804 -353.995)"/>
    <path id="Path_2136" data-name="Path 2136" d="M462.841,359.8a.24.24,0,0,0-.244.194,3.816,3.816,0,0,1-1.017,1.883,2.488,2.488,0,0,1-1.743.683c-1.816-.024-2.7-1.4-2.7-4.218a5.632,5.632,0,0,1,.753-3.106,2.458,2.458,0,0,1,4.427.655.258.258,0,0,0,.436.064.23.23,0,0,0,.032-.227,2.756,2.756,0,0,0-2.779-2.114,2.851,2.851,0,0,0-2.5,1.312,6.069,6.069,0,0,0-.863,3.416,10.615,10.615,0,0,0,.069,1.233,7.131,7.131,0,0,0,.272,1.241,3.9,3.9,0,0,0,.538,1.13,2.639,2.639,0,0,0,.933.792,2.867,2.867,0,0,0,1.37.319,2.944,2.944,0,0,0,2.084-.807,4.28,4.28,0,0,0,1.183-2.156.251.251,0,0,0-.048-.212A.245.245,0,0,0,462.841,359.8Z" transform="translate(-340.408 -353.615)"/>
    <path id="Path_2137" data-name="Path 2137" d="M510.354,354.156a.233.233,0,0,0-.249.248v5.445a3.56,3.56,0,0,1-.658,2.3,2.448,2.448,0,0,1-3.612,0,3.584,3.584,0,0,1-.652-2.3V354.4a.249.249,0,0,0-.5,0v5.445a4.059,4.059,0,0,0,.777,2.621,2.942,2.942,0,0,0,4.363,0,4.059,4.059,0,0,0,.777-2.621V354.4A.233.233,0,0,0,510.354,354.156Z" transform="translate(-374.149 -353.995)"/>
    <path id="Path_2138" data-name="Path 2138" d="M553.064,354.156a.233.233,0,0,0-.249.248v8.625a.249.249,0,1,0,.5,0V354.4A.233.233,0,0,0,553.064,354.156Z" transform="translate(-407.95 -353.995)"/>
    <path id="Path_2139" data-name="Path 2139" d="M584.071,358.148a3.839,3.839,0,0,1-1.672-.865,1.837,1.837,0,0,1-.526-1.353,1.652,1.652,0,0,1,.564-1.311,2.356,2.356,0,0,1,1.613-.507,2.973,2.973,0,0,1,1.065.187,2.233,2.233,0,0,1,.725.4.248.248,0,0,0,.351,0,.215.215,0,0,0,.076-.172.231.231,0,0,0-.1-.17,2.787,2.787,0,0,0-.836-.492,3.223,3.223,0,0,0-1.282-.26,2.845,2.845,0,0,0-1.945.638,2.088,2.088,0,0,0-.729,1.628,2.4,2.4,0,0,0,.628,1.713,4.277,4.277,0,0,0,1.923,1.029,4.908,4.908,0,0,1,1.731.824,1.5,1.5,0,0,1,.531,1.21,1.693,1.693,0,0,1-.637,1.353,2.593,2.593,0,0,1-1.737.551,3.143,3.143,0,0,1-1.291-.273,2.671,2.671,0,0,1-1.021-.791.254.254,0,0,0-.419.064.227.227,0,0,0,.038.254,3.207,3.207,0,0,0,1.082.883,3.439,3.439,0,0,0,1.611.361,3.079,3.079,0,0,0,2.073-.68,2.188,2.188,0,0,0,.8-1.721,1.973,1.973,0,0,0-.675-1.566A5.28,5.28,0,0,0,584.071,358.148Z" transform="translate(-427.787 -353.615)"/>
    <path id="Path_2140" data-name="Path 2140" d="M627.377,354.156a.233.233,0,0,0-.249.248v8.625a.249.249,0,1,0,.5,0V354.4A.233.233,0,0,0,627.377,354.156Z" transform="translate(-460.139 -353.995)"/>
    <path id="Path_2141" data-name="Path 2141" d="M663.316,354.156a.233.233,0,0,0-.249.248v8.118a.263.263,0,0,1-.5.118l-4.084-8.07a.759.759,0,0,0-1.434.342v8.117a.249.249,0,1,0,.5,0v-8.117a.254.254,0,0,1,.259-.259.241.241,0,0,1,.235.142l4.082,8.064a.7.7,0,0,0,.682.418.759.759,0,0,0,.756-.756V354.4A.232.232,0,0,0,663.316,354.156Z" transform="translate(-481.155 -353.995)"/>
    <path id="Path_2142" data-name="Path 2142" d="M712.189,362.781h-4.515v-3.822h3.476a.237.237,0,0,0,.261-.248.24.24,0,0,0-.261-.249h-3.476v-3.809h4.515a.249.249,0,1,0,0-.5h-4.764a.233.233,0,0,0-.249.248v8.625a.234.234,0,0,0,.249.249h4.764a.249.249,0,1,0,0-.5Z" transform="translate(-516.355 -353.995)"/>
  </g>
</svg>
